<?xml version="1.0" encoding="UTF-8"?>
<svg width="3160px" height="159px" viewBox="0 0 3160 159" version="1.1" xmlns="http://www.w3.org/2000/svg" xmlns:xlink="http://www.w3.org/1999/xlink">
    <!-- Generator: Sketch 51.1 (57501) - http://www.bohemiancoding.com/sketch -->
    <title>DNA 2</title>
    <desc>Created with Sketch.</desc>
    <defs></defs>
    <g id="Page-1" stroke="none" stroke-width="1" fill="none" fill-rule="evenodd">
        <g id="Group" fill="#000000">
            <g id="DNA">
                <g transform="translate(392.500000, 79.000000) scale(1, -1) rotate(-90.000000) translate(-392.500000, -79.000000) translate(313.500000, -313.500000)">
                    <g id="E/black" transform="translate(111.136294, 664.332484) rotate(180.000000) translate(-111.136294, -664.332484) translate(64.100404, 617.395404)">
                        <path d="M43.7802046,18.7349706 L35.4800094,29.169746 L58.9582541,47.8451851 C61.8397378,50.1372207 62.3175798,54.3311867 60.0255442,57.2126704 C57.7335086,60.0941541 53.5395426,60.5719961 50.658059,58.2799605 L27.1798142,39.6045214 L18.8796191,50.0392969 L55.4013331,79.0899799 C58.2828167,81.3820155 58.7606588,85.5759815 56.4686232,88.4574652 C54.1765876,91.3389489 49.9826216,91.8167909 47.1011379,89.5247553 L5.36203623,56.3239747 C2.48055256,54.0319391 2.00271049,49.8379731 4.29474609,46.9564894 L37.4955267,5.21738771 C39.7875623,2.33590404 43.9815283,1.85806198 46.863012,4.15009758 L88.6021137,37.3508782 C91.4835974,39.6429138 91.9614394,43.8368798 89.6694038,46.7183635 C87.3773682,49.5998472 83.1834022,50.0776892 80.3019185,47.7856536 L43.7802046,18.7349706 Z" id="Combined-Shape"></path>
                    </g>
                    <g id="E/black" transform="translate(74.222840, 737.471665) rotate(180.000000) translate(-74.222840, -737.471665) translate(27.186950, 690.534585)">
                        <path d="M43.7802046,18.7349706 L35.4800094,29.169746 L58.9582541,47.8451851 C61.8397378,50.1372207 62.3175798,54.3311867 60.0255442,57.2126704 C57.7335086,60.0941541 53.5395426,60.5719961 50.658059,58.2799605 L27.1798142,39.6045214 L18.8796191,50.0392969 L55.4013331,79.0899799 C58.2828167,81.3820155 58.7606588,85.5759815 56.4686232,88.4574652 C54.1765876,91.3389489 49.9826216,91.8167909 47.1011379,89.5247553 L5.36203623,56.3239747 C2.48055256,54.0319391 2.00271049,49.8379731 4.29474609,46.9564894 L37.4955267,5.21738771 C39.7875623,2.33590404 43.9815283,1.85806198 46.863012,4.15009758 L88.6021137,37.3508782 C91.4835974,39.6429138 91.9614394,43.8368798 89.6694038,46.7183635 C87.3773682,49.5998472 83.1834022,50.0776892 80.3019185,47.7856536 L43.7802046,18.7349706 Z" id="Combined-Shape"></path>
                    </g>
                    <g id="E/black" transform="translate(1.322115, 601.710795)">
                        <path d="M43.7802046,18.7349706 L35.4800094,29.169746 L58.9582541,47.8451851 C61.8397378,50.1372207 62.3175798,54.3311867 60.0255442,57.2126704 C57.7335086,60.0941541 53.5395426,60.5719961 50.658059,58.2799605 L27.1798142,39.6045214 L18.8796191,50.0392969 L55.4013331,79.0899799 C58.2828167,81.3820155 58.7606588,85.5759815 56.4686232,88.4574652 C54.1765876,91.3389489 49.9826216,91.8167909 47.1011379,89.5247553 L5.36203623,56.3239747 C2.48055256,54.0319391 2.00271049,49.8379731 4.29474609,46.9564894 L37.4955267,5.21738771 C39.7875623,2.33590404 43.9815283,1.85806198 46.863012,4.15009758 L88.6021137,37.3508782 C91.4835974,39.6429138 91.9614394,43.8368798 89.6694038,46.7183635 C87.3773682,49.5998472 83.1834022,50.0776892 80.3019185,47.7856536 L43.7802046,18.7349706 Z" id="Combined-Shape"></path>
                    </g>
                    <g id="E/black" transform="translate(38.235569, 528.571614)">
                        <path d="M43.7802046,18.7349706 L35.4800094,29.169746 L58.9582541,47.8451851 C61.8397378,50.1372207 62.3175798,54.3311867 60.0255442,57.2126704 C57.7335086,60.0941541 53.5395426,60.5719961 50.658059,58.2799605 L27.1798142,39.6045214 L18.8796191,50.0392969 L55.4013331,79.0899799 C58.2828167,81.3820155 58.7606588,85.5759815 56.4686232,88.4574652 C54.1765876,91.3389489 49.9826216,91.8167909 47.1011379,89.5247553 L5.36203623,56.3239747 C2.48055256,54.0319391 2.00271049,49.8379731 4.29474609,46.9564894 L37.4955267,5.21738771 C39.7875623,2.33590404 43.9815283,1.85806198 46.863012,4.15009758 L88.6021137,37.3508782 C91.4835974,39.6429138 91.9614394,43.8368798 89.6694038,46.7183635 C87.3773682,49.5998472 83.1834022,50.0776892 80.3019185,47.7856536 L43.7802046,18.7349706 Z" id="Combined-Shape"></path>
                    </g>
                    <g id="E/blue" transform="translate(110.466102, 400.182979) rotate(180.000000) translate(-110.466102, -400.182979) translate(62.932203, 352.748936)">
                        <path d="M44.2459514,18.9342788 L35.8574563,29.4800625 L59.5854696,48.3541764 C62.4976073,50.6705954 62.9805328,54.9091781 60.6641139,57.8213158 C58.3476949,60.7334536 54.1091122,61.2163791 51.1969745,58.8999601 L27.4689612,40.0258461 L19.0804661,50.5716298 L55.990709,79.9313627 C58.9028467,82.2477816 59.3857722,86.4863643 57.0693532,89.3985021 C54.7529343,92.3106398 50.5143516,92.7935653 47.6022139,90.4771463 L5.41907916,56.9231659 C2.50694141,54.606747 2.02401592,50.3681643 4.34043488,47.4560265 L37.8944153,5.27289184 C40.2108343,2.36075409 44.4494169,1.87782859 47.3615547,4.19424755 L89.5446894,37.748228 C92.4568271,40.0646469 92.9397526,44.3032296 90.6233337,47.2153674 C88.3069147,50.1275051 84.068332,50.6104306 81.1561943,48.2940116 L44.2459514,18.9342788 Z" id="Combined-Shape"></path>
                    </g>
                    <g id="E/black" transform="translate(73.588703, 473.185859) rotate(180.000000) translate(-73.588703, -473.185859) translate(26.552813, 426.248778)">
                        <path d="M43.7802046,18.7349706 L35.4800094,29.169746 L58.9582541,47.8451851 C61.8397378,50.1372207 62.3175798,54.3311867 60.0255442,57.2126704 C57.7335086,60.0941541 53.5395426,60.5719961 50.658059,58.2799605 L27.1798142,39.6045214 L18.8796191,50.0392969 L55.4013331,79.0899799 C58.2828167,81.3820155 58.7606588,85.5759815 56.4686232,88.4574652 C54.1765876,91.3389489 49.9826216,91.8167909 47.1011379,89.5247553 L5.36203623,56.3239747 C2.48055256,54.0319391 2.00271049,49.8379731 4.29474609,46.9564894 L37.4955267,5.21738771 C39.7875623,2.33590404 43.9815283,1.85806198 46.863012,4.15009758 L88.6021137,37.3508782 C91.4835974,39.6429138 91.9614394,43.8368798 89.6694038,46.7183635 C87.3773682,49.5998472 83.1834022,50.0776892 80.3019185,47.7856536 L43.7802046,18.7349706 Z" id="Combined-Shape"></path>
                    </g>
                    <g id="E/green" transform="translate(0.669492, 337.382979)">
                        <path d="M48.2290329,4.69863949 L89.5560435,37.5716281 C92.4375272,39.8636637 92.9153693,44.0576297 90.6233337,46.9391134 C88.3312981,49.820597 84.137332,50.2984391 81.2558484,48.0064035 L44.212471,18.5407706 L35.8169525,29.0953839 L59.5968237,48.0107475 C62.4783074,50.3027831 62.9561495,54.4967491 60.6641139,57.3782328 C58.3720783,60.2597165 54.1781122,60.7375585 51.2966286,58.4455229 L27.5167574,39.5301593 L19.1750119,50.0171706 L56.0020631,79.3107298 C58.8835468,81.6027654 59.3613889,85.7967314 57.0693532,88.6782151 C54.7773176,91.5596987 50.5833516,92.0375408 47.701868,89.7455052 L7.40436875,57.691427 C6.70386424,57.4510116 6.03179913,57.0888748 5.41907916,56.6014953 C3.73716688,55.2636419 2.87417948,53.2777974 2.90294906,51.2832008 C2.80783539,49.6990437 3.274726,48.0755192 4.34043488,46.7357395 C4.78420896,46.1778391 5.29928078,45.710044 5.86231988,45.3350125 L20.362729,27.1054998 C20.5679555,26.6932978 20.8192521,26.296231 21.1174251,25.9213762 C21.4155981,25.5465213 21.7459587,25.2123448 22.10143,24.9196531 L37.4557572,5.61661829 C37.5886271,5.40431719 37.7348052,5.19729521 37.8944153,4.99663784 C38.4521388,4.29548324 39.1224757,3.73664833 39.8591139,3.32540969 C42.1638963,1.98585399 45.1494769,2.11301085 47.3615547,3.87257695 C47.6802894,4.12610999 47.969614,4.40291434 48.2290329,4.69863949 Z" id="Combined-Shape"></path>
                    </g>
                    <g id="E/black" transform="translate(37.601432, 264.285807)">
                        <path d="M43.7802046,18.7349706 L35.4800094,29.169746 L58.9582541,47.8451851 C61.8397378,50.1372207 62.3175798,54.3311867 60.0255442,57.2126704 C57.7335086,60.0941541 53.5395426,60.5719961 50.658059,58.2799605 L27.1798142,39.6045214 L18.8796191,50.0392969 L55.4013331,79.0899799 C58.2828167,81.3820155 58.7606588,85.5759815 56.4686232,88.4574652 C54.1765876,91.3389489 49.9826216,91.8167909 47.1011379,89.5247553 L5.36203623,56.3239747 C2.48055256,54.0319391 2.00271049,49.8379731 4.29474609,46.9564894 L37.4955267,5.21738771 C39.7875623,2.33590404 43.9815283,1.85806198 46.863012,4.15009758 L88.6021137,37.3508782 C91.4835974,39.6429138 91.9614394,43.8368798 89.6694038,46.7183635 C87.3773682,49.5998472 83.1834022,50.0776892 80.3019185,47.7856536 L43.7802046,18.7349706 Z" id="Combined-Shape"></path>
                    </g>
                    <g id="E/black" transform="translate(109.868020, 135.760870) rotate(180.000000) translate(-109.868020, -135.760870) translate(62.832130, 88.823790)">
                        <path d="M43.7802046,18.7349706 L35.4800094,29.169746 L58.9582541,47.8451851 C61.8397378,50.1372207 62.3175798,54.3311867 60.0255442,57.2126704 C57.7335086,60.0941541 53.5395426,60.5719961 50.658059,58.2799605 L27.1798142,39.6045214 L18.8796191,50.0392969 L55.4013331,79.0899799 C58.2828167,81.3820155 58.7606588,85.5759815 56.4686232,88.4574652 C54.1765876,91.3389489 49.9826216,91.8167909 47.1011379,89.5247553 L5.36203623,56.3239747 C2.48055256,54.0319391 2.00271049,49.8379731 4.29474609,46.9564894 L37.4955267,5.21738771 C39.7875623,2.33590404 43.9815283,1.85806198 46.863012,4.15009758 L88.6021137,37.3508782 C91.4835974,39.6429138 91.9614394,43.8368798 89.6694038,46.7183635 C87.3773682,49.5998472 83.1834022,50.0776892 80.3019185,47.7856536 L43.7802046,18.7349706 Z" id="Combined-Shape"></path>
                    </g>
                    <g id="E/black" transform="translate(72.954566, 208.900052) rotate(180.000000) translate(-72.954566, -208.900052) translate(25.918676, 161.962971)">
                        <path d="M43.7802046,18.7349706 L35.4800094,29.169746 L58.9582541,47.8451851 C61.8397378,50.1372207 62.3175798,54.3311867 60.0255442,57.2126704 C57.7335086,60.0941541 53.5395426,60.5719961 50.658059,58.2799605 L27.1798142,39.6045214 L18.8796191,50.0392969 L55.4013331,79.0899799 C58.2828167,81.3820155 58.7606588,85.5759815 56.4686232,88.4574652 C54.1765876,91.3389489 49.9826216,91.8167909 47.1011379,89.5247553 L5.36203623,56.3239747 C2.48055256,54.0319391 2.00271049,49.8379731 4.29474609,46.9564894 L37.4955267,5.21738771 C39.7875623,2.33590404 43.9815283,1.85806198 46.863012,4.15009758 L88.6021137,37.3508782 C91.4835974,39.6429138 91.9614394,43.8368798 89.6694038,46.7183635 C87.3773682,49.5998472 83.1834022,50.0776892 80.3019185,47.7856536 L43.7802046,18.7349706 Z" id="Combined-Shape"></path>
                    </g>
                    <g id="E/black" transform="translate(0.053841, 73.139181)">
                        <path d="M43.7802046,18.7349706 L35.4800094,29.169746 L58.9582541,47.8451851 C61.8397378,50.1372207 62.3175798,54.3311867 60.0255442,57.2126704 C57.7335086,60.0941541 53.5395426,60.5719961 50.658059,58.2799605 L27.1798142,39.6045214 L18.8796191,50.0392969 L55.4013331,79.0899799 C58.2828167,81.3820155 58.7606588,85.5759815 56.4686232,88.4574652 C54.1765876,91.3389489 49.9826216,91.8167909 47.1011379,89.5247553 L5.36203623,56.3239747 C2.48055256,54.0319391 2.00271049,49.8379731 4.29474609,46.9564894 L37.4955267,5.21738771 C39.7875623,2.33590404 43.9815283,1.85806198 46.863012,4.15009758 L88.6021137,37.3508782 C91.4835974,39.6429138 91.9614394,43.8368798 89.6694038,46.7183635 C87.3773682,49.5998472 83.1834022,50.0776892 80.3019185,47.7856536 L43.7802046,18.7349706 Z" id="Combined-Shape"></path>
                    </g>
                    <g id="E/black" transform="translate(36.822034, 0.000000)">
                        <path d="M43.7802046,18.7349706 L35.4800094,29.169746 L58.9582541,47.8451851 C61.8397378,50.1372207 62.3175798,54.3311867 60.0255442,57.2126704 C57.7335086,60.0941541 53.5395426,60.5719961 50.658059,58.2799605 L27.1798142,39.6045214 L18.8796191,50.0392969 L55.4013331,79.0899799 C58.2828167,81.3820155 58.7606588,85.5759815 56.4686232,88.4574652 C54.1765876,91.3389489 49.9826216,91.8167909 47.1011379,89.5247553 L5.36203623,56.3239747 C2.48055256,54.0319391 2.00271049,49.8379731 4.29474609,46.9564894 L37.4955267,5.21738771 C39.7875623,2.33590404 43.9815283,1.85806198 46.863012,4.15009758 L88.6021137,37.3508782 C91.4835974,39.6429138 91.9614394,43.8368798 89.6694038,46.7183635 C87.3773682,49.5998472 83.1834022,50.0776892 80.3019185,47.7856536 L43.7802046,18.7349706 Z" id="Combined-Shape"></path>
                    </g>
                </g>
                <g transform="translate(1187.500000, 79.000000) scale(1, -1) rotate(-90.000000) translate(-1187.500000, -79.000000) translate(1108.500000, -313.500000)">
                    <g id="E/black" transform="translate(111.136294, 664.332484) rotate(180.000000) translate(-111.136294, -664.332484) translate(64.100404, 617.395404)">
                        <path d="M43.7802046,18.7349706 L35.4800094,29.169746 L58.9582541,47.8451851 C61.8397378,50.1372207 62.3175798,54.3311867 60.0255442,57.2126704 C57.7335086,60.0941541 53.5395426,60.5719961 50.658059,58.2799605 L27.1798142,39.6045214 L18.8796191,50.0392969 L55.4013331,79.0899799 C58.2828167,81.3820155 58.7606588,85.5759815 56.4686232,88.4574652 C54.1765876,91.3389489 49.9826216,91.8167909 47.1011379,89.5247553 L5.36203623,56.3239747 C2.48055256,54.0319391 2.00271049,49.8379731 4.29474609,46.9564894 L37.4955267,5.21738771 C39.7875623,2.33590404 43.9815283,1.85806198 46.863012,4.15009758 L88.6021137,37.3508782 C91.4835974,39.6429138 91.9614394,43.8368798 89.6694038,46.7183635 C87.3773682,49.5998472 83.1834022,50.0776892 80.3019185,47.7856536 L43.7802046,18.7349706 Z" id="Combined-Shape"></path>
                    </g>
                    <g id="E/black" transform="translate(74.222840, 737.471665) rotate(180.000000) translate(-74.222840, -737.471665) translate(27.186950, 690.534585)">
                        <path d="M43.7802046,18.7349706 L35.4800094,29.169746 L58.9582541,47.8451851 C61.8397378,50.1372207 62.3175798,54.3311867 60.0255442,57.2126704 C57.7335086,60.0941541 53.5395426,60.5719961 50.658059,58.2799605 L27.1798142,39.6045214 L18.8796191,50.0392969 L55.4013331,79.0899799 C58.2828167,81.3820155 58.7606588,85.5759815 56.4686232,88.4574652 C54.1765876,91.3389489 49.9826216,91.8167909 47.1011379,89.5247553 L5.36203623,56.3239747 C2.48055256,54.0319391 2.00271049,49.8379731 4.29474609,46.9564894 L37.4955267,5.21738771 C39.7875623,2.33590404 43.9815283,1.85806198 46.863012,4.15009758 L88.6021137,37.3508782 C91.4835974,39.6429138 91.9614394,43.8368798 89.6694038,46.7183635 C87.3773682,49.5998472 83.1834022,50.0776892 80.3019185,47.7856536 L43.7802046,18.7349706 Z" id="Combined-Shape"></path>
                    </g>
                    <g id="E/black" transform="translate(1.322115, 601.710795)">
                        <path d="M43.7802046,18.7349706 L35.4800094,29.169746 L58.9582541,47.8451851 C61.8397378,50.1372207 62.3175798,54.3311867 60.0255442,57.2126704 C57.7335086,60.0941541 53.5395426,60.5719961 50.658059,58.2799605 L27.1798142,39.6045214 L18.8796191,50.0392969 L55.4013331,79.0899799 C58.2828167,81.3820155 58.7606588,85.5759815 56.4686232,88.4574652 C54.1765876,91.3389489 49.9826216,91.8167909 47.1011379,89.5247553 L5.36203623,56.3239747 C2.48055256,54.0319391 2.00271049,49.8379731 4.29474609,46.9564894 L37.4955267,5.21738771 C39.7875623,2.33590404 43.9815283,1.85806198 46.863012,4.15009758 L88.6021137,37.3508782 C91.4835974,39.6429138 91.9614394,43.8368798 89.6694038,46.7183635 C87.3773682,49.5998472 83.1834022,50.0776892 80.3019185,47.7856536 L43.7802046,18.7349706 Z" id="Combined-Shape"></path>
                    </g>
                    <g id="E/black" transform="translate(38.235569, 528.571614)">
                        <path d="M43.7802046,18.7349706 L35.4800094,29.169746 L58.9582541,47.8451851 C61.8397378,50.1372207 62.3175798,54.3311867 60.0255442,57.2126704 C57.7335086,60.0941541 53.5395426,60.5719961 50.658059,58.2799605 L27.1798142,39.6045214 L18.8796191,50.0392969 L55.4013331,79.0899799 C58.2828167,81.3820155 58.7606588,85.5759815 56.4686232,88.4574652 C54.1765876,91.3389489 49.9826216,91.8167909 47.1011379,89.5247553 L5.36203623,56.3239747 C2.48055256,54.0319391 2.00271049,49.8379731 4.29474609,46.9564894 L37.4955267,5.21738771 C39.7875623,2.33590404 43.9815283,1.85806198 46.863012,4.15009758 L88.6021137,37.3508782 C91.4835974,39.6429138 91.9614394,43.8368798 89.6694038,46.7183635 C87.3773682,49.5998472 83.1834022,50.0776892 80.3019185,47.7856536 L43.7802046,18.7349706 Z" id="Combined-Shape"></path>
                    </g>
                    <g id="E/blue" transform="translate(110.466102, 400.182979) rotate(180.000000) translate(-110.466102, -400.182979) translate(62.932203, 352.748936)">
                        <path d="M44.2459514,18.9342788 L35.8574563,29.4800625 L59.5854696,48.3541764 C62.4976073,50.6705954 62.9805328,54.9091781 60.6641139,57.8213158 C58.3476949,60.7334536 54.1091122,61.2163791 51.1969745,58.8999601 L27.4689612,40.0258461 L19.0804661,50.5716298 L55.990709,79.9313627 C58.9028467,82.2477816 59.3857722,86.4863643 57.0693532,89.3985021 C54.7529343,92.3106398 50.5143516,92.7935653 47.6022139,90.4771463 L5.41907916,56.9231659 C2.50694141,54.606747 2.02401592,50.3681643 4.34043488,47.4560265 L37.8944153,5.27289184 C40.2108343,2.36075409 44.4494169,1.87782859 47.3615547,4.19424755 L89.5446894,37.748228 C92.4568271,40.0646469 92.9397526,44.3032296 90.6233337,47.2153674 C88.3069147,50.1275051 84.068332,50.6104306 81.1561943,48.2940116 L44.2459514,18.9342788 Z" id="Combined-Shape"></path>
                    </g>
                    <g id="E/black" transform="translate(73.588703, 473.185859) rotate(180.000000) translate(-73.588703, -473.185859) translate(26.552813, 426.248778)">
                        <path d="M43.7802046,18.7349706 L35.4800094,29.169746 L58.9582541,47.8451851 C61.8397378,50.1372207 62.3175798,54.3311867 60.0255442,57.2126704 C57.7335086,60.0941541 53.5395426,60.5719961 50.658059,58.2799605 L27.1798142,39.6045214 L18.8796191,50.0392969 L55.4013331,79.0899799 C58.2828167,81.3820155 58.7606588,85.5759815 56.4686232,88.4574652 C54.1765876,91.3389489 49.9826216,91.8167909 47.1011379,89.5247553 L5.36203623,56.3239747 C2.48055256,54.0319391 2.00271049,49.8379731 4.29474609,46.9564894 L37.4955267,5.21738771 C39.7875623,2.33590404 43.9815283,1.85806198 46.863012,4.15009758 L88.6021137,37.3508782 C91.4835974,39.6429138 91.9614394,43.8368798 89.6694038,46.7183635 C87.3773682,49.5998472 83.1834022,50.0776892 80.3019185,47.7856536 L43.7802046,18.7349706 Z" id="Combined-Shape"></path>
                    </g>
                    <g id="E/green" transform="translate(0.669492, 337.382979)">
                        <path d="M48.2290329,4.69863949 L89.5560435,37.5716281 C92.4375272,39.8636637 92.9153693,44.0576297 90.6233337,46.9391134 C88.3312981,49.820597 84.137332,50.2984391 81.2558484,48.0064035 L44.212471,18.5407706 L35.8169525,29.0953839 L59.5968237,48.0107475 C62.4783074,50.3027831 62.9561495,54.4967491 60.6641139,57.3782328 C58.3720783,60.2597165 54.1781122,60.7375585 51.2966286,58.4455229 L27.5167574,39.5301593 L19.1750119,50.0171706 L56.0020631,79.3107298 C58.8835468,81.6027654 59.3613889,85.7967314 57.0693532,88.6782151 C54.7773176,91.5596987 50.5833516,92.0375408 47.701868,89.7455052 L7.40436875,57.691427 C6.70386424,57.4510116 6.03179913,57.0888748 5.41907916,56.6014953 C3.73716688,55.2636419 2.87417948,53.2777974 2.90294906,51.2832008 C2.80783539,49.6990437 3.274726,48.0755192 4.34043488,46.7357395 C4.78420896,46.1778391 5.29928078,45.710044 5.86231988,45.3350125 L20.362729,27.1054998 C20.5679555,26.6932978 20.8192521,26.296231 21.1174251,25.9213762 C21.4155981,25.5465213 21.7459587,25.2123448 22.10143,24.9196531 L37.4557572,5.61661829 C37.5886271,5.40431719 37.7348052,5.19729521 37.8944153,4.99663784 C38.4521388,4.29548324 39.1224757,3.73664833 39.8591139,3.32540969 C42.1638963,1.98585399 45.1494769,2.11301085 47.3615547,3.87257695 C47.6802894,4.12610999 47.969614,4.40291434 48.2290329,4.69863949 Z" id="Combined-Shape"></path>
                    </g>
                    <g id="E/black" transform="translate(37.601432, 264.285807)">
                        <path d="M43.7802046,18.7349706 L35.4800094,29.169746 L58.9582541,47.8451851 C61.8397378,50.1372207 62.3175798,54.3311867 60.0255442,57.2126704 C57.7335086,60.0941541 53.5395426,60.5719961 50.658059,58.2799605 L27.1798142,39.6045214 L18.8796191,50.0392969 L55.4013331,79.0899799 C58.2828167,81.3820155 58.7606588,85.5759815 56.4686232,88.4574652 C54.1765876,91.3389489 49.9826216,91.8167909 47.1011379,89.5247553 L5.36203623,56.3239747 C2.48055256,54.0319391 2.00271049,49.8379731 4.29474609,46.9564894 L37.4955267,5.21738771 C39.7875623,2.33590404 43.9815283,1.85806198 46.863012,4.15009758 L88.6021137,37.3508782 C91.4835974,39.6429138 91.9614394,43.8368798 89.6694038,46.7183635 C87.3773682,49.5998472 83.1834022,50.0776892 80.3019185,47.7856536 L43.7802046,18.7349706 Z" id="Combined-Shape"></path>
                    </g>
                    <g id="E/black" transform="translate(109.868020, 135.760870) rotate(180.000000) translate(-109.868020, -135.760870) translate(62.832130, 88.823790)">
                        <path d="M43.7802046,18.7349706 L35.4800094,29.169746 L58.9582541,47.8451851 C61.8397378,50.1372207 62.3175798,54.3311867 60.0255442,57.2126704 C57.7335086,60.0941541 53.5395426,60.5719961 50.658059,58.2799605 L27.1798142,39.6045214 L18.8796191,50.0392969 L55.4013331,79.0899799 C58.2828167,81.3820155 58.7606588,85.5759815 56.4686232,88.4574652 C54.1765876,91.3389489 49.9826216,91.8167909 47.1011379,89.5247553 L5.36203623,56.3239747 C2.48055256,54.0319391 2.00271049,49.8379731 4.29474609,46.9564894 L37.4955267,5.21738771 C39.7875623,2.33590404 43.9815283,1.85806198 46.863012,4.15009758 L88.6021137,37.3508782 C91.4835974,39.6429138 91.9614394,43.8368798 89.6694038,46.7183635 C87.3773682,49.5998472 83.1834022,50.0776892 80.3019185,47.7856536 L43.7802046,18.7349706 Z" id="Combined-Shape"></path>
                    </g>
                    <g id="E/black" transform="translate(72.954566, 208.900052) rotate(180.000000) translate(-72.954566, -208.900052) translate(25.918676, 161.962971)">
                        <path d="M43.7802046,18.7349706 L35.4800094,29.169746 L58.9582541,47.8451851 C61.8397378,50.1372207 62.3175798,54.3311867 60.0255442,57.2126704 C57.7335086,60.0941541 53.5395426,60.5719961 50.658059,58.2799605 L27.1798142,39.6045214 L18.8796191,50.0392969 L55.4013331,79.0899799 C58.2828167,81.3820155 58.7606588,85.5759815 56.4686232,88.4574652 C54.1765876,91.3389489 49.9826216,91.8167909 47.1011379,89.5247553 L5.36203623,56.3239747 C2.48055256,54.0319391 2.00271049,49.8379731 4.29474609,46.9564894 L37.4955267,5.21738771 C39.7875623,2.33590404 43.9815283,1.85806198 46.863012,4.15009758 L88.6021137,37.3508782 C91.4835974,39.6429138 91.9614394,43.8368798 89.6694038,46.7183635 C87.3773682,49.5998472 83.1834022,50.0776892 80.3019185,47.7856536 L43.7802046,18.7349706 Z" id="Combined-Shape"></path>
                    </g>
                    <g id="E/black" transform="translate(0.053841, 73.139181)">
                        <path d="M43.7802046,18.7349706 L35.4800094,29.169746 L58.9582541,47.8451851 C61.8397378,50.1372207 62.3175798,54.3311867 60.0255442,57.2126704 C57.7335086,60.0941541 53.5395426,60.5719961 50.658059,58.2799605 L27.1798142,39.6045214 L18.8796191,50.0392969 L55.4013331,79.0899799 C58.2828167,81.3820155 58.7606588,85.5759815 56.4686232,88.4574652 C54.1765876,91.3389489 49.9826216,91.8167909 47.1011379,89.5247553 L5.36203623,56.3239747 C2.48055256,54.0319391 2.00271049,49.8379731 4.29474609,46.9564894 L37.4955267,5.21738771 C39.7875623,2.33590404 43.9815283,1.85806198 46.863012,4.15009758 L88.6021137,37.3508782 C91.4835974,39.6429138 91.9614394,43.8368798 89.6694038,46.7183635 C87.3773682,49.5998472 83.1834022,50.0776892 80.3019185,47.7856536 L43.7802046,18.7349706 Z" id="Combined-Shape"></path>
                    </g>
                    <g id="E/black" transform="translate(36.822034, 0.000000)">
                        <path d="M43.7802046,18.7349706 L35.4800094,29.169746 L58.9582541,47.8451851 C61.8397378,50.1372207 62.3175798,54.3311867 60.0255442,57.2126704 C57.7335086,60.0941541 53.5395426,60.5719961 50.658059,58.2799605 L27.1798142,39.6045214 L18.8796191,50.0392969 L55.4013331,79.0899799 C58.2828167,81.3820155 58.7606588,85.5759815 56.4686232,88.4574652 C54.1765876,91.3389489 49.9826216,91.8167909 47.1011379,89.5247553 L5.36203623,56.3239747 C2.48055256,54.0319391 2.00271049,49.8379731 4.29474609,46.9564894 L37.4955267,5.21738771 C39.7875623,2.33590404 43.9815283,1.85806198 46.863012,4.15009758 L88.6021137,37.3508782 C91.4835974,39.6429138 91.9614394,43.8368798 89.6694038,46.7183635 C87.3773682,49.5998472 83.1834022,50.0776892 80.3019185,47.7856536 L43.7802046,18.7349706 Z" id="Combined-Shape"></path>
                    </g>
                </g>
            </g>
            <g id="DNA" transform="translate(1580.000000, 0.000000)">
                <g transform="translate(392.500000, 79.000000) scale(1, -1) rotate(-90.000000) translate(-392.500000, -79.000000) translate(313.500000, -313.500000)">
                    <g id="E/black" transform="translate(111.136294, 664.332484) rotate(180.000000) translate(-111.136294, -664.332484) translate(64.100404, 617.395404)">
                        <path d="M43.7802046,18.7349706 L35.4800094,29.169746 L58.9582541,47.8451851 C61.8397378,50.1372207 62.3175798,54.3311867 60.0255442,57.2126704 C57.7335086,60.0941541 53.5395426,60.5719961 50.658059,58.2799605 L27.1798142,39.6045214 L18.8796191,50.0392969 L55.4013331,79.0899799 C58.2828167,81.3820155 58.7606588,85.5759815 56.4686232,88.4574652 C54.1765876,91.3389489 49.9826216,91.8167909 47.1011379,89.5247553 L5.36203623,56.3239747 C2.48055256,54.0319391 2.00271049,49.8379731 4.29474609,46.9564894 L37.4955267,5.21738771 C39.7875623,2.33590404 43.9815283,1.85806198 46.863012,4.15009758 L88.6021137,37.3508782 C91.4835974,39.6429138 91.9614394,43.8368798 89.6694038,46.7183635 C87.3773682,49.5998472 83.1834022,50.0776892 80.3019185,47.7856536 L43.7802046,18.7349706 Z" id="Combined-Shape"></path>
                    </g>
                    <g id="E/black" transform="translate(74.222840, 737.471665) rotate(180.000000) translate(-74.222840, -737.471665) translate(27.186950, 690.534585)">
                        <path d="M43.7802046,18.7349706 L35.4800094,29.169746 L58.9582541,47.8451851 C61.8397378,50.1372207 62.3175798,54.3311867 60.0255442,57.2126704 C57.7335086,60.0941541 53.5395426,60.5719961 50.658059,58.2799605 L27.1798142,39.6045214 L18.8796191,50.0392969 L55.4013331,79.0899799 C58.2828167,81.3820155 58.7606588,85.5759815 56.4686232,88.4574652 C54.1765876,91.3389489 49.9826216,91.8167909 47.1011379,89.5247553 L5.36203623,56.3239747 C2.48055256,54.0319391 2.00271049,49.8379731 4.29474609,46.9564894 L37.4955267,5.21738771 C39.7875623,2.33590404 43.9815283,1.85806198 46.863012,4.15009758 L88.6021137,37.3508782 C91.4835974,39.6429138 91.9614394,43.8368798 89.6694038,46.7183635 C87.3773682,49.5998472 83.1834022,50.0776892 80.3019185,47.7856536 L43.7802046,18.7349706 Z" id="Combined-Shape"></path>
                    </g>
                    <g id="E/black" transform="translate(1.322115, 601.710795)">
                        <path d="M43.7802046,18.7349706 L35.4800094,29.169746 L58.9582541,47.8451851 C61.8397378,50.1372207 62.3175798,54.3311867 60.0255442,57.2126704 C57.7335086,60.0941541 53.5395426,60.5719961 50.658059,58.2799605 L27.1798142,39.6045214 L18.8796191,50.0392969 L55.4013331,79.0899799 C58.2828167,81.3820155 58.7606588,85.5759815 56.4686232,88.4574652 C54.1765876,91.3389489 49.9826216,91.8167909 47.1011379,89.5247553 L5.36203623,56.3239747 C2.48055256,54.0319391 2.00271049,49.8379731 4.29474609,46.9564894 L37.4955267,5.21738771 C39.7875623,2.33590404 43.9815283,1.85806198 46.863012,4.15009758 L88.6021137,37.3508782 C91.4835974,39.6429138 91.9614394,43.8368798 89.6694038,46.7183635 C87.3773682,49.5998472 83.1834022,50.0776892 80.3019185,47.7856536 L43.7802046,18.7349706 Z" id="Combined-Shape"></path>
                    </g>
                    <g id="E/black" transform="translate(38.235569, 528.571614)">
                        <path d="M43.7802046,18.7349706 L35.4800094,29.169746 L58.9582541,47.8451851 C61.8397378,50.1372207 62.3175798,54.3311867 60.0255442,57.2126704 C57.7335086,60.0941541 53.5395426,60.5719961 50.658059,58.2799605 L27.1798142,39.6045214 L18.8796191,50.0392969 L55.4013331,79.0899799 C58.2828167,81.3820155 58.7606588,85.5759815 56.4686232,88.4574652 C54.1765876,91.3389489 49.9826216,91.8167909 47.1011379,89.5247553 L5.36203623,56.3239747 C2.48055256,54.0319391 2.00271049,49.8379731 4.29474609,46.9564894 L37.4955267,5.21738771 C39.7875623,2.33590404 43.9815283,1.85806198 46.863012,4.15009758 L88.6021137,37.3508782 C91.4835974,39.6429138 91.9614394,43.8368798 89.6694038,46.7183635 C87.3773682,49.5998472 83.1834022,50.0776892 80.3019185,47.7856536 L43.7802046,18.7349706 Z" id="Combined-Shape"></path>
                    </g>
                    <g id="E/blue" transform="translate(110.466102, 400.182979) rotate(180.000000) translate(-110.466102, -400.182979) translate(62.932203, 352.748936)">
                        <path d="M44.2459514,18.9342788 L35.8574563,29.4800625 L59.5854696,48.3541764 C62.4976073,50.6705954 62.9805328,54.9091781 60.6641139,57.8213158 C58.3476949,60.7334536 54.1091122,61.2163791 51.1969745,58.8999601 L27.4689612,40.0258461 L19.0804661,50.5716298 L55.990709,79.9313627 C58.9028467,82.2477816 59.3857722,86.4863643 57.0693532,89.3985021 C54.7529343,92.3106398 50.5143516,92.7935653 47.6022139,90.4771463 L5.41907916,56.9231659 C2.50694141,54.606747 2.02401592,50.3681643 4.34043488,47.4560265 L37.8944153,5.27289184 C40.2108343,2.36075409 44.4494169,1.87782859 47.3615547,4.19424755 L89.5446894,37.748228 C92.4568271,40.0646469 92.9397526,44.3032296 90.6233337,47.2153674 C88.3069147,50.1275051 84.068332,50.6104306 81.1561943,48.2940116 L44.2459514,18.9342788 Z" id="Combined-Shape"></path>
                    </g>
                    <g id="E/black" transform="translate(73.588703, 473.185859) rotate(180.000000) translate(-73.588703, -473.185859) translate(26.552813, 426.248778)">
                        <path d="M43.7802046,18.7349706 L35.4800094,29.169746 L58.9582541,47.8451851 C61.8397378,50.1372207 62.3175798,54.3311867 60.0255442,57.2126704 C57.7335086,60.0941541 53.5395426,60.5719961 50.658059,58.2799605 L27.1798142,39.6045214 L18.8796191,50.0392969 L55.4013331,79.0899799 C58.2828167,81.3820155 58.7606588,85.5759815 56.4686232,88.4574652 C54.1765876,91.3389489 49.9826216,91.8167909 47.1011379,89.5247553 L5.36203623,56.3239747 C2.48055256,54.0319391 2.00271049,49.8379731 4.29474609,46.9564894 L37.4955267,5.21738771 C39.7875623,2.33590404 43.9815283,1.85806198 46.863012,4.15009758 L88.6021137,37.3508782 C91.4835974,39.6429138 91.9614394,43.8368798 89.6694038,46.7183635 C87.3773682,49.5998472 83.1834022,50.0776892 80.3019185,47.7856536 L43.7802046,18.7349706 Z" id="Combined-Shape"></path>
                    </g>
                    <g id="E/green" transform="translate(0.669492, 337.382979)">
                        <path d="M48.2290329,4.69863949 L89.5560435,37.5716281 C92.4375272,39.8636637 92.9153693,44.0576297 90.6233337,46.9391134 C88.3312981,49.820597 84.137332,50.2984391 81.2558484,48.0064035 L44.212471,18.5407706 L35.8169525,29.0953839 L59.5968237,48.0107475 C62.4783074,50.3027831 62.9561495,54.4967491 60.6641139,57.3782328 C58.3720783,60.2597165 54.1781122,60.7375585 51.2966286,58.4455229 L27.5167574,39.5301593 L19.1750119,50.0171706 L56.0020631,79.3107298 C58.8835468,81.6027654 59.3613889,85.7967314 57.0693532,88.6782151 C54.7773176,91.5596987 50.5833516,92.0375408 47.701868,89.7455052 L7.40436875,57.691427 C6.70386424,57.4510116 6.03179913,57.0888748 5.41907916,56.6014953 C3.73716688,55.2636419 2.87417948,53.2777974 2.90294906,51.2832008 C2.80783539,49.6990437 3.274726,48.0755192 4.34043488,46.7357395 C4.78420896,46.1778391 5.29928078,45.710044 5.86231988,45.3350125 L20.362729,27.1054998 C20.5679555,26.6932978 20.8192521,26.296231 21.1174251,25.9213762 C21.4155981,25.5465213 21.7459587,25.2123448 22.10143,24.9196531 L37.4557572,5.61661829 C37.5886271,5.40431719 37.7348052,5.19729521 37.8944153,4.99663784 C38.4521388,4.29548324 39.1224757,3.73664833 39.8591139,3.32540969 C42.1638963,1.98585399 45.1494769,2.11301085 47.3615547,3.87257695 C47.6802894,4.12610999 47.969614,4.40291434 48.2290329,4.69863949 Z" id="Combined-Shape"></path>
                    </g>
                    <g id="E/black" transform="translate(37.601432, 264.285807)">
                        <path d="M43.7802046,18.7349706 L35.4800094,29.169746 L58.9582541,47.8451851 C61.8397378,50.1372207 62.3175798,54.3311867 60.0255442,57.2126704 C57.7335086,60.0941541 53.5395426,60.5719961 50.658059,58.2799605 L27.1798142,39.6045214 L18.8796191,50.0392969 L55.4013331,79.0899799 C58.2828167,81.3820155 58.7606588,85.5759815 56.4686232,88.4574652 C54.1765876,91.3389489 49.9826216,91.8167909 47.1011379,89.5247553 L5.36203623,56.3239747 C2.48055256,54.0319391 2.00271049,49.8379731 4.29474609,46.9564894 L37.4955267,5.21738771 C39.7875623,2.33590404 43.9815283,1.85806198 46.863012,4.15009758 L88.6021137,37.3508782 C91.4835974,39.6429138 91.9614394,43.8368798 89.6694038,46.7183635 C87.3773682,49.5998472 83.1834022,50.0776892 80.3019185,47.7856536 L43.7802046,18.7349706 Z" id="Combined-Shape"></path>
                    </g>
                    <g id="E/black" transform="translate(109.868020, 135.760870) rotate(180.000000) translate(-109.868020, -135.760870) translate(62.832130, 88.823790)">
                        <path d="M43.7802046,18.7349706 L35.4800094,29.169746 L58.9582541,47.8451851 C61.8397378,50.1372207 62.3175798,54.3311867 60.0255442,57.2126704 C57.7335086,60.0941541 53.5395426,60.5719961 50.658059,58.2799605 L27.1798142,39.6045214 L18.8796191,50.0392969 L55.4013331,79.0899799 C58.2828167,81.3820155 58.7606588,85.5759815 56.4686232,88.4574652 C54.1765876,91.3389489 49.9826216,91.8167909 47.1011379,89.5247553 L5.36203623,56.3239747 C2.48055256,54.0319391 2.00271049,49.8379731 4.29474609,46.9564894 L37.4955267,5.21738771 C39.7875623,2.33590404 43.9815283,1.85806198 46.863012,4.15009758 L88.6021137,37.3508782 C91.4835974,39.6429138 91.9614394,43.8368798 89.6694038,46.7183635 C87.3773682,49.5998472 83.1834022,50.0776892 80.3019185,47.7856536 L43.7802046,18.7349706 Z" id="Combined-Shape"></path>
                    </g>
                    <g id="E/black" transform="translate(72.954566, 208.900052) rotate(180.000000) translate(-72.954566, -208.900052) translate(25.918676, 161.962971)">
                        <path d="M43.7802046,18.7349706 L35.4800094,29.169746 L58.9582541,47.8451851 C61.8397378,50.1372207 62.3175798,54.3311867 60.0255442,57.2126704 C57.7335086,60.0941541 53.5395426,60.5719961 50.658059,58.2799605 L27.1798142,39.6045214 L18.8796191,50.0392969 L55.4013331,79.0899799 C58.2828167,81.3820155 58.7606588,85.5759815 56.4686232,88.4574652 C54.1765876,91.3389489 49.9826216,91.8167909 47.1011379,89.5247553 L5.36203623,56.3239747 C2.48055256,54.0319391 2.00271049,49.8379731 4.29474609,46.9564894 L37.4955267,5.21738771 C39.7875623,2.33590404 43.9815283,1.85806198 46.863012,4.15009758 L88.6021137,37.3508782 C91.4835974,39.6429138 91.9614394,43.8368798 89.6694038,46.7183635 C87.3773682,49.5998472 83.1834022,50.0776892 80.3019185,47.7856536 L43.7802046,18.7349706 Z" id="Combined-Shape"></path>
                    </g>
                    <g id="E/black" transform="translate(0.053841, 73.139181)">
                        <path d="M43.7802046,18.7349706 L35.4800094,29.169746 L58.9582541,47.8451851 C61.8397378,50.1372207 62.3175798,54.3311867 60.0255442,57.2126704 C57.7335086,60.0941541 53.5395426,60.5719961 50.658059,58.2799605 L27.1798142,39.6045214 L18.8796191,50.0392969 L55.4013331,79.0899799 C58.2828167,81.3820155 58.7606588,85.5759815 56.4686232,88.4574652 C54.1765876,91.3389489 49.9826216,91.8167909 47.1011379,89.5247553 L5.36203623,56.3239747 C2.48055256,54.0319391 2.00271049,49.8379731 4.29474609,46.9564894 L37.4955267,5.21738771 C39.7875623,2.33590404 43.9815283,1.85806198 46.863012,4.15009758 L88.6021137,37.3508782 C91.4835974,39.6429138 91.9614394,43.8368798 89.6694038,46.7183635 C87.3773682,49.5998472 83.1834022,50.0776892 80.3019185,47.7856536 L43.7802046,18.7349706 Z" id="Combined-Shape"></path>
                    </g>
                    <g id="E/black" transform="translate(36.822034, 0.000000)">
                        <path d="M43.7802046,18.7349706 L35.4800094,29.169746 L58.9582541,47.8451851 C61.8397378,50.1372207 62.3175798,54.3311867 60.0255442,57.2126704 C57.7335086,60.0941541 53.5395426,60.5719961 50.658059,58.2799605 L27.1798142,39.6045214 L18.8796191,50.0392969 L55.4013331,79.0899799 C58.2828167,81.3820155 58.7606588,85.5759815 56.4686232,88.4574652 C54.1765876,91.3389489 49.9826216,91.8167909 47.1011379,89.5247553 L5.36203623,56.3239747 C2.48055256,54.0319391 2.00271049,49.8379731 4.29474609,46.9564894 L37.4955267,5.21738771 C39.7875623,2.33590404 43.9815283,1.85806198 46.863012,4.15009758 L88.6021137,37.3508782 C91.4835974,39.6429138 91.9614394,43.8368798 89.6694038,46.7183635 C87.3773682,49.5998472 83.1834022,50.0776892 80.3019185,47.7856536 L43.7802046,18.7349706 Z" id="Combined-Shape"></path>
                    </g>
                </g>
                <g transform="translate(1187.500000, 79.000000) scale(1, -1) rotate(-90.000000) translate(-1187.500000, -79.000000) translate(1108.500000, -313.500000)">
                    <g id="E/black" transform="translate(111.136294, 664.332484) rotate(180.000000) translate(-111.136294, -664.332484) translate(64.100404, 617.395404)">
                        <path d="M43.7802046,18.7349706 L35.4800094,29.169746 L58.9582541,47.8451851 C61.8397378,50.1372207 62.3175798,54.3311867 60.0255442,57.2126704 C57.7335086,60.0941541 53.5395426,60.5719961 50.658059,58.2799605 L27.1798142,39.6045214 L18.8796191,50.0392969 L55.4013331,79.0899799 C58.2828167,81.3820155 58.7606588,85.5759815 56.4686232,88.4574652 C54.1765876,91.3389489 49.9826216,91.8167909 47.1011379,89.5247553 L5.36203623,56.3239747 C2.48055256,54.0319391 2.00271049,49.8379731 4.29474609,46.9564894 L37.4955267,5.21738771 C39.7875623,2.33590404 43.9815283,1.85806198 46.863012,4.15009758 L88.6021137,37.3508782 C91.4835974,39.6429138 91.9614394,43.8368798 89.6694038,46.7183635 C87.3773682,49.5998472 83.1834022,50.0776892 80.3019185,47.7856536 L43.7802046,18.7349706 Z" id="Combined-Shape"></path>
                    </g>
                    <g id="E/black" transform="translate(74.222840, 737.471665) rotate(180.000000) translate(-74.222840, -737.471665) translate(27.186950, 690.534585)">
                        <path d="M43.7802046,18.7349706 L35.4800094,29.169746 L58.9582541,47.8451851 C61.8397378,50.1372207 62.3175798,54.3311867 60.0255442,57.2126704 C57.7335086,60.0941541 53.5395426,60.5719961 50.658059,58.2799605 L27.1798142,39.6045214 L18.8796191,50.0392969 L55.4013331,79.0899799 C58.2828167,81.3820155 58.7606588,85.5759815 56.4686232,88.4574652 C54.1765876,91.3389489 49.9826216,91.8167909 47.1011379,89.5247553 L5.36203623,56.3239747 C2.48055256,54.0319391 2.00271049,49.8379731 4.29474609,46.9564894 L37.4955267,5.21738771 C39.7875623,2.33590404 43.9815283,1.85806198 46.863012,4.15009758 L88.6021137,37.3508782 C91.4835974,39.6429138 91.9614394,43.8368798 89.6694038,46.7183635 C87.3773682,49.5998472 83.1834022,50.0776892 80.3019185,47.7856536 L43.7802046,18.7349706 Z" id="Combined-Shape"></path>
                    </g>
                    <g id="E/black" transform="translate(1.322115, 601.710795)">
                        <path d="M43.7802046,18.7349706 L35.4800094,29.169746 L58.9582541,47.8451851 C61.8397378,50.1372207 62.3175798,54.3311867 60.0255442,57.2126704 C57.7335086,60.0941541 53.5395426,60.5719961 50.658059,58.2799605 L27.1798142,39.6045214 L18.8796191,50.0392969 L55.4013331,79.0899799 C58.2828167,81.3820155 58.7606588,85.5759815 56.4686232,88.4574652 C54.1765876,91.3389489 49.9826216,91.8167909 47.1011379,89.5247553 L5.36203623,56.3239747 C2.48055256,54.0319391 2.00271049,49.8379731 4.29474609,46.9564894 L37.4955267,5.21738771 C39.7875623,2.33590404 43.9815283,1.85806198 46.863012,4.15009758 L88.6021137,37.3508782 C91.4835974,39.6429138 91.9614394,43.8368798 89.6694038,46.7183635 C87.3773682,49.5998472 83.1834022,50.0776892 80.3019185,47.7856536 L43.7802046,18.7349706 Z" id="Combined-Shape"></path>
                    </g>
                    <g id="E/black" transform="translate(38.235569, 528.571614)">
                        <path d="M43.7802046,18.7349706 L35.4800094,29.169746 L58.9582541,47.8451851 C61.8397378,50.1372207 62.3175798,54.3311867 60.0255442,57.2126704 C57.7335086,60.0941541 53.5395426,60.5719961 50.658059,58.2799605 L27.1798142,39.6045214 L18.8796191,50.0392969 L55.4013331,79.0899799 C58.2828167,81.3820155 58.7606588,85.5759815 56.4686232,88.4574652 C54.1765876,91.3389489 49.9826216,91.8167909 47.1011379,89.5247553 L5.36203623,56.3239747 C2.48055256,54.0319391 2.00271049,49.8379731 4.29474609,46.9564894 L37.4955267,5.21738771 C39.7875623,2.33590404 43.9815283,1.85806198 46.863012,4.15009758 L88.6021137,37.3508782 C91.4835974,39.6429138 91.9614394,43.8368798 89.6694038,46.7183635 C87.3773682,49.5998472 83.1834022,50.0776892 80.3019185,47.7856536 L43.7802046,18.7349706 Z" id="Combined-Shape"></path>
                    </g>
                    <g id="E/blue" transform="translate(110.466102, 400.182979) rotate(180.000000) translate(-110.466102, -400.182979) translate(62.932203, 352.748936)">
                        <path d="M44.2459514,18.9342788 L35.8574563,29.4800625 L59.5854696,48.3541764 C62.4976073,50.6705954 62.9805328,54.9091781 60.6641139,57.8213158 C58.3476949,60.7334536 54.1091122,61.2163791 51.1969745,58.8999601 L27.4689612,40.0258461 L19.0804661,50.5716298 L55.990709,79.9313627 C58.9028467,82.2477816 59.3857722,86.4863643 57.0693532,89.3985021 C54.7529343,92.3106398 50.5143516,92.7935653 47.6022139,90.4771463 L5.41907916,56.9231659 C2.50694141,54.606747 2.02401592,50.3681643 4.34043488,47.4560265 L37.8944153,5.27289184 C40.2108343,2.36075409 44.4494169,1.87782859 47.3615547,4.19424755 L89.5446894,37.748228 C92.4568271,40.0646469 92.9397526,44.3032296 90.6233337,47.2153674 C88.3069147,50.1275051 84.068332,50.6104306 81.1561943,48.2940116 L44.2459514,18.9342788 Z" id="Combined-Shape"></path>
                    </g>
                    <g id="E/black" transform="translate(73.588703, 473.185859) rotate(180.000000) translate(-73.588703, -473.185859) translate(26.552813, 426.248778)">
                        <path d="M43.7802046,18.7349706 L35.4800094,29.169746 L58.9582541,47.8451851 C61.8397378,50.1372207 62.3175798,54.3311867 60.0255442,57.2126704 C57.7335086,60.0941541 53.5395426,60.5719961 50.658059,58.2799605 L27.1798142,39.6045214 L18.8796191,50.0392969 L55.4013331,79.0899799 C58.2828167,81.3820155 58.7606588,85.5759815 56.4686232,88.4574652 C54.1765876,91.3389489 49.9826216,91.8167909 47.1011379,89.5247553 L5.36203623,56.3239747 C2.48055256,54.0319391 2.00271049,49.8379731 4.29474609,46.9564894 L37.4955267,5.21738771 C39.7875623,2.33590404 43.9815283,1.85806198 46.863012,4.15009758 L88.6021137,37.3508782 C91.4835974,39.6429138 91.9614394,43.8368798 89.6694038,46.7183635 C87.3773682,49.5998472 83.1834022,50.0776892 80.3019185,47.7856536 L43.7802046,18.7349706 Z" id="Combined-Shape"></path>
                    </g>
                    <g id="E/green" transform="translate(0.669492, 337.382979)">
                        <path d="M48.2290329,4.69863949 L89.5560435,37.5716281 C92.4375272,39.8636637 92.9153693,44.0576297 90.6233337,46.9391134 C88.3312981,49.820597 84.137332,50.2984391 81.2558484,48.0064035 L44.212471,18.5407706 L35.8169525,29.0953839 L59.5968237,48.0107475 C62.4783074,50.3027831 62.9561495,54.4967491 60.6641139,57.3782328 C58.3720783,60.2597165 54.1781122,60.7375585 51.2966286,58.4455229 L27.5167574,39.5301593 L19.1750119,50.0171706 L56.0020631,79.3107298 C58.8835468,81.6027654 59.3613889,85.7967314 57.0693532,88.6782151 C54.7773176,91.5596987 50.5833516,92.0375408 47.701868,89.7455052 L7.40436875,57.691427 C6.70386424,57.4510116 6.03179913,57.0888748 5.41907916,56.6014953 C3.73716688,55.2636419 2.87417948,53.2777974 2.90294906,51.2832008 C2.80783539,49.6990437 3.274726,48.0755192 4.34043488,46.7357395 C4.78420896,46.1778391 5.29928078,45.710044 5.86231988,45.3350125 L20.362729,27.1054998 C20.5679555,26.6932978 20.8192521,26.296231 21.1174251,25.9213762 C21.4155981,25.5465213 21.7459587,25.2123448 22.10143,24.9196531 L37.4557572,5.61661829 C37.5886271,5.40431719 37.7348052,5.19729521 37.8944153,4.99663784 C38.4521388,4.29548324 39.1224757,3.73664833 39.8591139,3.32540969 C42.1638963,1.98585399 45.1494769,2.11301085 47.3615547,3.87257695 C47.6802894,4.12610999 47.969614,4.40291434 48.2290329,4.69863949 Z" id="Combined-Shape"></path>
                    </g>
                    <g id="E/black" transform="translate(37.601432, 264.285807)">
                        <path d="M43.7802046,18.7349706 L35.4800094,29.169746 L58.9582541,47.8451851 C61.8397378,50.1372207 62.3175798,54.3311867 60.0255442,57.2126704 C57.7335086,60.0941541 53.5395426,60.5719961 50.658059,58.2799605 L27.1798142,39.6045214 L18.8796191,50.0392969 L55.4013331,79.0899799 C58.2828167,81.3820155 58.7606588,85.5759815 56.4686232,88.4574652 C54.1765876,91.3389489 49.9826216,91.8167909 47.1011379,89.5247553 L5.36203623,56.3239747 C2.48055256,54.0319391 2.00271049,49.8379731 4.29474609,46.9564894 L37.4955267,5.21738771 C39.7875623,2.33590404 43.9815283,1.85806198 46.863012,4.15009758 L88.6021137,37.3508782 C91.4835974,39.6429138 91.9614394,43.8368798 89.6694038,46.7183635 C87.3773682,49.5998472 83.1834022,50.0776892 80.3019185,47.7856536 L43.7802046,18.7349706 Z" id="Combined-Shape"></path>
                    </g>
                    <g id="E/black" transform="translate(109.868020, 135.760870) rotate(180.000000) translate(-109.868020, -135.760870) translate(62.832130, 88.823790)">
                        <path d="M43.7802046,18.7349706 L35.4800094,29.169746 L58.9582541,47.8451851 C61.8397378,50.1372207 62.3175798,54.3311867 60.0255442,57.2126704 C57.7335086,60.0941541 53.5395426,60.5719961 50.658059,58.2799605 L27.1798142,39.6045214 L18.8796191,50.0392969 L55.4013331,79.0899799 C58.2828167,81.3820155 58.7606588,85.5759815 56.4686232,88.4574652 C54.1765876,91.3389489 49.9826216,91.8167909 47.1011379,89.5247553 L5.36203623,56.3239747 C2.48055256,54.0319391 2.00271049,49.8379731 4.29474609,46.9564894 L37.4955267,5.21738771 C39.7875623,2.33590404 43.9815283,1.85806198 46.863012,4.15009758 L88.6021137,37.3508782 C91.4835974,39.6429138 91.9614394,43.8368798 89.6694038,46.7183635 C87.3773682,49.5998472 83.1834022,50.0776892 80.3019185,47.7856536 L43.7802046,18.7349706 Z" id="Combined-Shape"></path>
                    </g>
                    <g id="E/black" transform="translate(72.954566, 208.900052) rotate(180.000000) translate(-72.954566, -208.900052) translate(25.918676, 161.962971)">
                        <path d="M43.7802046,18.7349706 L35.4800094,29.169746 L58.9582541,47.8451851 C61.8397378,50.1372207 62.3175798,54.3311867 60.0255442,57.2126704 C57.7335086,60.0941541 53.5395426,60.5719961 50.658059,58.2799605 L27.1798142,39.6045214 L18.8796191,50.0392969 L55.4013331,79.0899799 C58.2828167,81.3820155 58.7606588,85.5759815 56.4686232,88.4574652 C54.1765876,91.3389489 49.9826216,91.8167909 47.1011379,89.5247553 L5.36203623,56.3239747 C2.48055256,54.0319391 2.00271049,49.8379731 4.29474609,46.9564894 L37.4955267,5.21738771 C39.7875623,2.33590404 43.9815283,1.85806198 46.863012,4.15009758 L88.6021137,37.3508782 C91.4835974,39.6429138 91.9614394,43.8368798 89.6694038,46.7183635 C87.3773682,49.5998472 83.1834022,50.0776892 80.3019185,47.7856536 L43.7802046,18.7349706 Z" id="Combined-Shape"></path>
                    </g>
                    <g id="E/black" transform="translate(0.053841, 73.139181)">
                        <path d="M43.7802046,18.7349706 L35.4800094,29.169746 L58.9582541,47.8451851 C61.8397378,50.1372207 62.3175798,54.3311867 60.0255442,57.2126704 C57.7335086,60.0941541 53.5395426,60.5719961 50.658059,58.2799605 L27.1798142,39.6045214 L18.8796191,50.0392969 L55.4013331,79.0899799 C58.2828167,81.3820155 58.7606588,85.5759815 56.4686232,88.4574652 C54.1765876,91.3389489 49.9826216,91.8167909 47.1011379,89.5247553 L5.36203623,56.3239747 C2.48055256,54.0319391 2.00271049,49.8379731 4.29474609,46.9564894 L37.4955267,5.21738771 C39.7875623,2.33590404 43.9815283,1.85806198 46.863012,4.15009758 L88.6021137,37.3508782 C91.4835974,39.6429138 91.9614394,43.8368798 89.6694038,46.7183635 C87.3773682,49.5998472 83.1834022,50.0776892 80.3019185,47.7856536 L43.7802046,18.7349706 Z" id="Combined-Shape"></path>
                    </g>
                    <g id="E/black" transform="translate(36.822034, 0.000000)">
                        <path d="M43.7802046,18.7349706 L35.4800094,29.169746 L58.9582541,47.8451851 C61.8397378,50.1372207 62.3175798,54.3311867 60.0255442,57.2126704 C57.7335086,60.0941541 53.5395426,60.5719961 50.658059,58.2799605 L27.1798142,39.6045214 L18.8796191,50.0392969 L55.4013331,79.0899799 C58.2828167,81.3820155 58.7606588,85.5759815 56.4686232,88.4574652 C54.1765876,91.3389489 49.9826216,91.8167909 47.1011379,89.5247553 L5.36203623,56.3239747 C2.48055256,54.0319391 2.00271049,49.8379731 4.29474609,46.9564894 L37.4955267,5.21738771 C39.7875623,2.33590404 43.9815283,1.85806198 46.863012,4.15009758 L88.6021137,37.3508782 C91.4835974,39.6429138 91.9614394,43.8368798 89.6694038,46.7183635 C87.3773682,49.5998472 83.1834022,50.0776892 80.3019185,47.7856536 L43.7802046,18.7349706 Z" id="Combined-Shape"></path>
                    </g>
                </g>
            </g>
        </g>
    </g>
</svg>