<?xml version="1.0" standalone="no"?>
<!DOCTYPE svg PUBLIC "-//W3C//DTD SVG 20010904//EN"
 "http://www.w3.org/TR/2001/REC-SVG-20010904/DTD/svg10.dtd">
<svg version="1.0" xmlns="http://www.w3.org/2000/svg"
 width="310.000000pt" height="310.000000pt" viewBox="0 0 310.000000 310.000000"
 preserveAspectRatio="xMidYMid meet">
<metadata>
Created by potrace 1.11, written by Peter Selinger 2001-2013
</metadata>
<g transform="translate(0.000000,310.000000) scale(0.100000,-0.100000)"
fill="#000000" stroke="none">
<path d="M1077 2940 c-36 -28 -675 -834 -688 -867 -23 -61 -12 -71 393 -394
501 -399 473 -379 515 -379 47 0 66 12 102 66 34 51 37 70 20 108 -7 14 -171
152 -365 306 -195 155 -354 286 -354 292 0 8 94 131 135 176 10 11 53 -18 231
-160 268 -213 261 -208 303 -208 28 0 43 9 78 45 37 39 43 51 43 88 0 23 -6
49 -13 58 -7 9 -117 100 -245 202 l-232 184 75 94 c42 52 80 93 85 92 5 -2
165 -127 356 -279 191 -152 359 -280 374 -286 90 -31 197 124 133 194 -23 26
-822 661 -850 676 -32 18 -67 14 -96 -8z"/>
<path d="M1755 1778 c-28 -16 -54 -48 -71 -86 -20 -46 -4 -92 44 -129 20 -15
182 -143 360 -284 l322 -257 -76 -96 c-41 -53 -78 -96 -81 -96 -3 0 -107 81
-231 181 -125 100 -237 186 -250 192 -39 18 -92 -2 -129 -51 -37 -49 -43 -94
-17 -130 9 -13 116 -102 238 -199 121 -97 224 -179 229 -182 6 -6 -137 -201
-148 -201 -2 0 -165 128 -362 285 -336 267 -360 285 -399 285 -46 0 -63 -10
-99 -59 -32 -45 -34 -100 -2 -135 45 -52 840 -675 868 -681 16 -4 40 -1 56 7
16 8 165 186 365 437 320 402 338 427 338 465 0 23 -6 48 -13 57 -7 9 -202
168 -435 353 -447 355 -450 357 -507 324z"/>
</g>
</svg>
