<svg version="1" xmlns="http://www.w3.org/2000/svg" width="933.333" height="933.333" viewBox="0 0 700.000000 700.000000"><path d="M316 1.1c-71.7 7-140.1 36.2-194.5 83C52 143.8 8.6 228.6.9 319.8c-1.5 17.8-.6 60.3 1.5 75.7 9.2 65 32 119.4 72.2 171.5 11.3 14.8 43.5 46.9 58.4 58.4 55.8 43.1 115.3 66.6 185.9 73.6 13.3 1.3 48.9 1.3 62.2 0 34.9-3.5 68.5-11.3 98.2-23.1 24.6-9.7 57-27.6 78.2-43.2 22.1-16.3 49.4-42.5 65.9-63.2 40.8-51.3 64.3-106.5 74.3-175 2.5-17.3 2.5-71.6 0-89.4-12.2-85.4-48.9-156-110.7-213.3-52.1-48.3-117.8-79-191-89.3-13.7-2-65.3-2.9-80-1.4zm73.9 160.1c52.8 8.5 99.2 38.7 129.4 84.3 24.4 36.8 35.9 86.2 30.1 128.8l-.7 4.7H223l.6 2.7c1.6 7 7.6 23.8 11 30.5 9.1 18.2 26.3 38.6 42.2 50.1 16.1 11.6 36.6 20.5 55.9 24.4 13.8 2.7 39.7 2.5 53.3-.6 31.9-7 60.6-24.4 79-48l5.5-7h31.3c17.1-.1 31.2.2 31.2.6 0 .3-2.3 4.9-5.1 10.2-16 30.1-41 56.3-70.9 74.3-21.3 12.9-44.6 21.1-71 25.3-13.7 2.1-40.9 2.2-54.9.1-34.8-5.3-67.8-19.7-94.1-41.1-7.8-6.4-23.1-21.8-29.3-29.6-36.9-45.9-50.4-107.8-36.2-166.6 9.9-41.3 35.8-80.6 70.2-106.5 43.2-32.5 94.8-45.3 148.2-36.6z"/><path d="M339.5 214.1c-21.9 3-45.8 12.9-64.1 26.5-8.6 6.4-22.5 20.6-28.8 29.4-10.5 14.5-18.5 32-22.6 49.4-1.1 4.3-1.7 8.3-1.4 8.8.3.4 61.5.8 136.1.8h135.6l-.6-4.3c-1.1-7.9-5.8-22.2-10.6-32.2-18.9-39.8-53.4-67.1-96.6-76.6-10.5-2.3-36.1-3.3-47-1.8z"/></svg>