<?xml version="1.0" encoding="UTF-8"?>
<svg width="3160px" height="159px" viewBox="0 0 3160 159" version="1.1" xmlns="http://www.w3.org/2000/svg" xmlns:xlink="http://www.w3.org/1999/xlink">
    <!-- Generator: Sketch 51.1 (57501) - http://www.bohemiancoding.com/sketch -->
    <title>DNA 2</title>
    <desc>Created with Sketch.</desc>
    <defs></defs>
    <g id="Page-1" stroke="none" stroke-width="1" fill="none" fill-rule="evenodd">
        <g id="Group">
            <g id="DNA">
                <g transform="translate(392.500000, 79.000000) scale(1, -1) rotate(-90.000000) translate(-392.500000, -79.000000) translate(313.500000, -313.500000)">
                    <g id="E/black" transform="translate(111.136294, 664.332484) rotate(180.000000) translate(-111.136294, -664.332484) translate(64.100404, 617.395404)" stroke="#000000" stroke-width="2">
                        <path d="M34.0748866,29.3298395 L43.620111,17.3298478 L80.9244332,47.0030455 C83.3736943,48.9512757 86.9385654,48.54511 88.8867957,46.0958489 C90.8350259,43.6465877 90.4288602,40.0817166 87.9795991,38.1334864 L46.2404974,4.93270573 C43.7912362,2.98447547 40.2263651,3.39064123 38.2781349,5.83990235 L5.07735425,47.579004 C3.12912399,50.0282652 3.53528974,53.5931363 5.98455086,55.5413665 L47.7236526,88.7421472 C50.1729137,90.6903774 53.7377848,90.2842117 55.6860151,87.8349506 C57.6342453,85.3856894 57.2280796,81.8208183 54.7788184,79.8725881 L17.4744963,50.1993904 L27.0197207,38.1993986 L51.2805736,57.4973524 C53.7298347,59.4455826 57.2947058,59.0394169 59.2429361,56.5901558 C61.1911663,54.1408946 60.7850006,50.5760235 58.3357395,48.6277933 L34.0748866,29.3298395 Z" id="Combined-Shape"></path>
                    </g>
                    <g id="E/black" transform="translate(74.222840, 737.471665) rotate(180.000000) translate(-74.222840, -737.471665) translate(27.186950, 690.534585)" stroke="#000000" stroke-width="2">
                        <path d="M34.0748866,29.3298395 L43.620111,17.3298478 L80.9244332,47.0030455 C83.3736943,48.9512757 86.9385654,48.54511 88.8867957,46.0958489 C90.8350259,43.6465877 90.4288602,40.0817166 87.9795991,38.1334864 L46.2404974,4.93270573 C43.7912362,2.98447547 40.2263651,3.39064123 38.2781349,5.83990235 L5.07735425,47.579004 C3.12912399,50.0282652 3.53528974,53.5931363 5.98455086,55.5413665 L47.7236526,88.7421472 C50.1729137,90.6903774 53.7377848,90.2842117 55.6860151,87.8349506 C57.6342453,85.3856894 57.2280796,81.8208183 54.7788184,79.8725881 L17.4744963,50.1993904 L27.0197207,38.1993986 L51.2805736,57.4973524 C53.7298347,59.4455826 57.2947058,59.0394169 59.2429361,56.5901558 C61.1911663,54.1408946 60.7850006,50.5760235 58.3357395,48.6277933 L34.0748866,29.3298395 Z" id="Combined-Shape"></path>
                    </g>
                    <g id="E/black" transform="translate(1.322115, 601.710795)" stroke="#000000" stroke-width="2">
                        <path d="M34.0748866,29.3298395 L43.620111,17.3298478 L80.9244332,47.0030455 C83.3736943,48.9512757 86.9385654,48.54511 88.8867957,46.0958489 C90.8350259,43.6465877 90.4288602,40.0817166 87.9795991,38.1334864 L46.2404974,4.93270573 C43.7912362,2.98447547 40.2263651,3.39064123 38.2781349,5.83990235 L5.07735425,47.579004 C3.12912399,50.0282652 3.53528974,53.5931363 5.98455086,55.5413665 L47.7236526,88.7421472 C50.1729137,90.6903774 53.7377848,90.2842117 55.6860151,87.8349506 C57.6342453,85.3856894 57.2280796,81.8208183 54.7788184,79.8725881 L17.4744963,50.1993904 L27.0197207,38.1993986 L51.2805736,57.4973524 C53.7298347,59.4455826 57.2947058,59.0394169 59.2429361,56.5901558 C61.1911663,54.1408946 60.7850006,50.5760235 58.3357395,48.6277933 L34.0748866,29.3298395 Z" id="Combined-Shape"></path>
                    </g>
                    <g id="E/black" transform="translate(38.235569, 528.571614)" stroke="#000000" stroke-width="2">
                        <path d="M34.0748866,29.3298395 L43.620111,17.3298478 L80.9244332,47.0030455 C83.3736943,48.9512757 86.9385654,48.54511 88.8867957,46.0958489 C90.8350259,43.6465877 90.4288602,40.0817166 87.9795991,38.1334864 L46.2404974,4.93270573 C43.7912362,2.98447547 40.2263651,3.39064123 38.2781349,5.83990235 L5.07735425,47.579004 C3.12912399,50.0282652 3.53528974,53.5931363 5.98455086,55.5413665 L47.7236526,88.7421472 C50.1729137,90.6903774 53.7377848,90.2842117 55.6860151,87.8349506 C57.6342453,85.3856894 57.2280796,81.8208183 54.7788184,79.8725881 L17.4744963,50.1993904 L27.0197207,38.1993986 L51.2805736,57.4973524 C53.7298347,59.4455826 57.2947058,59.0394169 59.2429361,56.5901558 C61.1911663,54.1408946 60.7850006,50.5760235 58.3357395,48.6277933 L34.0748866,29.3298395 Z" id="Combined-Shape"></path>
                    </g>
                    <g id="E/blue" transform="translate(110.466102, 400.182979) rotate(180.000000) translate(-110.466102, -400.182979) translate(62.932203, 352.748936)" fill="#E84345" fill-rule="evenodd">
                        <path d="M44.2459514,18.9342788 L35.8574563,29.4800625 L59.5854696,48.3541764 C62.4976073,50.6705954 62.9805328,54.9091781 60.6641139,57.8213158 C58.3476949,60.7334536 54.1091122,61.2163791 51.1969745,58.8999601 L27.4689612,40.0258461 L19.0804661,50.5716298 L55.990709,79.9313627 C58.9028467,82.2477816 59.3857722,86.4863643 57.0693532,89.3985021 C54.7529343,92.3106398 50.5143516,92.7935653 47.6022139,90.4771463 L5.41907916,56.9231659 C2.50694141,54.606747 2.02401592,50.3681643 4.34043488,47.4560265 L37.8944153,5.27289184 C40.2108343,2.36075409 44.4494169,1.87782859 47.3615547,4.19424755 L89.5446894,37.748228 C92.4568271,40.0646469 92.9397526,44.3032296 90.6233337,47.2153674 C88.3069147,50.1275051 84.068332,50.6104306 81.1561943,48.2940116 L44.2459514,18.9342788 Z" id="Combined-Shape"></path>
                    </g>
                    <g id="E/black" transform="translate(73.588703, 473.185859) rotate(180.000000) translate(-73.588703, -473.185859) translate(26.552813, 426.248778)" stroke="#000000" stroke-width="2">
                        <path d="M34.0748866,29.3298395 L43.620111,17.3298478 L80.9244332,47.0030455 C83.3736943,48.9512757 86.9385654,48.54511 88.8867957,46.0958489 C90.8350259,43.6465877 90.4288602,40.0817166 87.9795991,38.1334864 L46.2404974,4.93270573 C43.7912362,2.98447547 40.2263651,3.39064123 38.2781349,5.83990235 L5.07735425,47.579004 C3.12912399,50.0282652 3.53528974,53.5931363 5.98455086,55.5413665 L47.7236526,88.7421472 C50.1729137,90.6903774 53.7377848,90.2842117 55.6860151,87.8349506 C57.6342453,85.3856894 57.2280796,81.8208183 54.7788184,79.8725881 L17.4744963,50.1993904 L27.0197207,38.1993986 L51.2805736,57.4973524 C53.7298347,59.4455826 57.2947058,59.0394169 59.2429361,56.5901558 C61.1911663,54.1408946 60.7850006,50.5760235 58.3357395,48.6277933 L34.0748866,29.3298395 Z" id="Combined-Shape"></path>
                    </g>
                    <g id="E/green" transform="translate(0.669492, 337.382979)" fill="#3F540B" fill-rule="evenodd">
                        <path d="M48.2290329,4.69863949 L89.5560435,37.5716281 C92.4375272,39.8636637 92.9153693,44.0576297 90.6233337,46.9391134 C88.3312981,49.820597 84.137332,50.2984391 81.2558484,48.0064035 L44.212471,18.5407706 L35.8169525,29.0953839 L59.5968237,48.0107475 C62.4783074,50.3027831 62.9561495,54.4967491 60.6641139,57.3782328 C58.3720783,60.2597165 54.1781122,60.7375585 51.2966286,58.4455229 L27.5167574,39.5301593 L19.1750119,50.0171706 L56.0020631,79.3107298 C58.8835468,81.6027654 59.3613889,85.7967314 57.0693532,88.6782151 C54.7773176,91.5596987 50.5833516,92.0375408 47.701868,89.7455052 L7.40436875,57.691427 C6.70386424,57.4510116 6.03179913,57.0888748 5.41907916,56.6014953 C3.73716688,55.2636419 2.87417948,53.2777974 2.90294906,51.2832008 C2.80783539,49.6990437 3.274726,48.0755192 4.34043488,46.7357395 C4.78420896,46.1778391 5.29928078,45.710044 5.86231988,45.3350125 L20.362729,27.1054998 C20.5679555,26.6932978 20.8192521,26.296231 21.1174251,25.9213762 C21.4155981,25.5465213 21.7459587,25.2123448 22.10143,24.9196531 L37.4557572,5.61661829 C37.5886271,5.40431719 37.7348052,5.19729521 37.8944153,4.99663784 C38.4521388,4.29548324 39.1224757,3.73664833 39.8591139,3.32540969 C42.1638963,1.98585399 45.1494769,2.11301085 47.3615547,3.87257695 C47.6802894,4.12610999 47.969614,4.40291434 48.2290329,4.69863949 Z" id="Combined-Shape"></path>
                    </g>
                    <g id="E/black" transform="translate(37.601432, 264.285807)" stroke="#000000" stroke-width="2">
                        <path d="M34.0748866,29.3298395 L43.620111,17.3298478 L80.9244332,47.0030455 C83.3736943,48.9512757 86.9385654,48.54511 88.8867957,46.0958489 C90.8350259,43.6465877 90.4288602,40.0817166 87.9795991,38.1334864 L46.2404974,4.93270573 C43.7912362,2.98447547 40.2263651,3.39064123 38.2781349,5.83990235 L5.07735425,47.579004 C3.12912399,50.0282652 3.53528974,53.5931363 5.98455086,55.5413665 L47.7236526,88.7421472 C50.1729137,90.6903774 53.7377848,90.2842117 55.6860151,87.8349506 C57.6342453,85.3856894 57.2280796,81.8208183 54.7788184,79.8725881 L17.4744963,50.1993904 L27.0197207,38.1993986 L51.2805736,57.4973524 C53.7298347,59.4455826 57.2947058,59.0394169 59.2429361,56.5901558 C61.1911663,54.1408946 60.7850006,50.5760235 58.3357395,48.6277933 L34.0748866,29.3298395 Z" id="Combined-Shape"></path>
                    </g>
                    <g id="E/black" transform="translate(109.868020, 135.760870) rotate(180.000000) translate(-109.868020, -135.760870) translate(62.832130, 88.823790)" stroke="#000000" stroke-width="2">
                        <path d="M34.0748866,29.3298395 L43.620111,17.3298478 L80.9244332,47.0030455 C83.3736943,48.9512757 86.9385654,48.54511 88.8867957,46.0958489 C90.8350259,43.6465877 90.4288602,40.0817166 87.9795991,38.1334864 L46.2404974,4.93270573 C43.7912362,2.98447547 40.2263651,3.39064123 38.2781349,5.83990235 L5.07735425,47.579004 C3.12912399,50.0282652 3.53528974,53.5931363 5.98455086,55.5413665 L47.7236526,88.7421472 C50.1729137,90.6903774 53.7377848,90.2842117 55.6860151,87.8349506 C57.6342453,85.3856894 57.2280796,81.8208183 54.7788184,79.8725881 L17.4744963,50.1993904 L27.0197207,38.1993986 L51.2805736,57.4973524 C53.7298347,59.4455826 57.2947058,59.0394169 59.2429361,56.5901558 C61.1911663,54.1408946 60.7850006,50.5760235 58.3357395,48.6277933 L34.0748866,29.3298395 Z" id="Combined-Shape"></path>
                    </g>
                    <g id="E/black" transform="translate(72.954566, 208.900052) rotate(180.000000) translate(-72.954566, -208.900052) translate(25.918676, 161.962971)" stroke="#000000" stroke-width="2">
                        <path d="M34.0748866,29.3298395 L43.620111,17.3298478 L80.9244332,47.0030455 C83.3736943,48.9512757 86.9385654,48.54511 88.8867957,46.0958489 C90.8350259,43.6465877 90.4288602,40.0817166 87.9795991,38.1334864 L46.2404974,4.93270573 C43.7912362,2.98447547 40.2263651,3.39064123 38.2781349,5.83990235 L5.07735425,47.579004 C3.12912399,50.0282652 3.53528974,53.5931363 5.98455086,55.5413665 L47.7236526,88.7421472 C50.1729137,90.6903774 53.7377848,90.2842117 55.6860151,87.8349506 C57.6342453,85.3856894 57.2280796,81.8208183 54.7788184,79.8725881 L17.4744963,50.1993904 L27.0197207,38.1993986 L51.2805736,57.4973524 C53.7298347,59.4455826 57.2947058,59.0394169 59.2429361,56.5901558 C61.1911663,54.1408946 60.7850006,50.5760235 58.3357395,48.6277933 L34.0748866,29.3298395 Z" id="Combined-Shape"></path>
                    </g>
                    <g id="E/black" transform="translate(0.053841, 73.139181)" stroke="#000000" stroke-width="2">
                        <path d="M34.0748866,29.3298395 L43.620111,17.3298478 L80.9244332,47.0030455 C83.3736943,48.9512757 86.9385654,48.54511 88.8867957,46.0958489 C90.8350259,43.6465877 90.4288602,40.0817166 87.9795991,38.1334864 L46.2404974,4.93270573 C43.7912362,2.98447547 40.2263651,3.39064123 38.2781349,5.83990235 L5.07735425,47.579004 C3.12912399,50.0282652 3.53528974,53.5931363 5.98455086,55.5413665 L47.7236526,88.7421472 C50.1729137,90.6903774 53.7377848,90.2842117 55.6860151,87.8349506 C57.6342453,85.3856894 57.2280796,81.8208183 54.7788184,79.8725881 L17.4744963,50.1993904 L27.0197207,38.1993986 L51.2805736,57.4973524 C53.7298347,59.4455826 57.2947058,59.0394169 59.2429361,56.5901558 C61.1911663,54.1408946 60.7850006,50.5760235 58.3357395,48.6277933 L34.0748866,29.3298395 Z" id="Combined-Shape"></path>
                    </g>
                    <g id="E/black" transform="translate(36.822034, 0.000000)" stroke="#000000" stroke-width="2">
                        <path d="M34.0748866,29.3298395 L43.620111,17.3298478 L80.9244332,47.0030455 C83.3736943,48.9512757 86.9385654,48.54511 88.8867957,46.0958489 C90.8350259,43.6465877 90.4288602,40.0817166 87.9795991,38.1334864 L46.2404974,4.93270573 C43.7912362,2.98447547 40.2263651,3.39064123 38.2781349,5.83990235 L5.07735425,47.579004 C3.12912399,50.0282652 3.53528974,53.5931363 5.98455086,55.5413665 L47.7236526,88.7421472 C50.1729137,90.6903774 53.7377848,90.2842117 55.6860151,87.8349506 C57.6342453,85.3856894 57.2280796,81.8208183 54.7788184,79.8725881 L17.4744963,50.1993904 L27.0197207,38.1993986 L51.2805736,57.4973524 C53.7298347,59.4455826 57.2947058,59.0394169 59.2429361,56.5901558 C61.1911663,54.1408946 60.7850006,50.5760235 58.3357395,48.6277933 L34.0748866,29.3298395 Z" id="Combined-Shape"></path>
                    </g>
                </g>
                <g id="DNA-2" transform="translate(1187.500000, 79.000000) scale(1, -1) rotate(-90.000000) translate(-1187.500000, -79.000000) translate(1108.500000, -313.500000)" stroke="#000000" stroke-width="2">
                    <g id="E/black" transform="translate(111.136294, 664.332484) rotate(180.000000) translate(-111.136294, -664.332484) translate(64.100404, 617.395404)">
                        <path d="M34.0748866,29.3298395 L43.620111,17.3298478 L80.9244332,47.0030455 C83.3736943,48.9512757 86.9385654,48.54511 88.8867957,46.0958489 C90.8350259,43.6465877 90.4288602,40.0817166 87.9795991,38.1334864 L46.2404974,4.93270573 C43.7912362,2.98447547 40.2263651,3.39064123 38.2781349,5.83990235 L5.07735425,47.579004 C3.12912399,50.0282652 3.53528974,53.5931363 5.98455086,55.5413665 L47.7236526,88.7421472 C50.1729137,90.6903774 53.7377848,90.2842117 55.6860151,87.8349506 C57.6342453,85.3856894 57.2280796,81.8208183 54.7788184,79.8725881 L17.4744963,50.1993904 L27.0197207,38.1993986 L51.2805736,57.4973524 C53.7298347,59.4455826 57.2947058,59.0394169 59.2429361,56.5901558 C61.1911663,54.1408946 60.7850006,50.5760235 58.3357395,48.6277933 L34.0748866,29.3298395 Z" id="Combined-Shape"></path>
                    </g>
                    <g id="E/black" transform="translate(74.222840, 737.471665) rotate(180.000000) translate(-74.222840, -737.471665) translate(27.186950, 690.534585)">
                        <path d="M34.0748866,29.3298395 L43.620111,17.3298478 L80.9244332,47.0030455 C83.3736943,48.9512757 86.9385654,48.54511 88.8867957,46.0958489 C90.8350259,43.6465877 90.4288602,40.0817166 87.9795991,38.1334864 L46.2404974,4.93270573 C43.7912362,2.98447547 40.2263651,3.39064123 38.2781349,5.83990235 L5.07735425,47.579004 C3.12912399,50.0282652 3.53528974,53.5931363 5.98455086,55.5413665 L47.7236526,88.7421472 C50.1729137,90.6903774 53.7377848,90.2842117 55.6860151,87.8349506 C57.6342453,85.3856894 57.2280796,81.8208183 54.7788184,79.8725881 L17.4744963,50.1993904 L27.0197207,38.1993986 L51.2805736,57.4973524 C53.7298347,59.4455826 57.2947058,59.0394169 59.2429361,56.5901558 C61.1911663,54.1408946 60.7850006,50.5760235 58.3357395,48.6277933 L34.0748866,29.3298395 Z" id="Combined-Shape"></path>
                    </g>
                    <g id="E/black" transform="translate(1.322115, 601.710795)">
                        <path d="M34.0748866,29.3298395 L43.620111,17.3298478 L80.9244332,47.0030455 C83.3736943,48.9512757 86.9385654,48.54511 88.8867957,46.0958489 C90.8350259,43.6465877 90.4288602,40.0817166 87.9795991,38.1334864 L46.2404974,4.93270573 C43.7912362,2.98447547 40.2263651,3.39064123 38.2781349,5.83990235 L5.07735425,47.579004 C3.12912399,50.0282652 3.53528974,53.5931363 5.98455086,55.5413665 L47.7236526,88.7421472 C50.1729137,90.6903774 53.7377848,90.2842117 55.6860151,87.8349506 C57.6342453,85.3856894 57.2280796,81.8208183 54.7788184,79.8725881 L17.4744963,50.1993904 L27.0197207,38.1993986 L51.2805736,57.4973524 C53.7298347,59.4455826 57.2947058,59.0394169 59.2429361,56.5901558 C61.1911663,54.1408946 60.7850006,50.5760235 58.3357395,48.6277933 L34.0748866,29.3298395 Z" id="Combined-Shape"></path>
                    </g>
                    <g id="E/black" transform="translate(38.235569, 528.571614)">
                        <path d="M34.0748866,29.3298395 L43.620111,17.3298478 L80.9244332,47.0030455 C83.3736943,48.9512757 86.9385654,48.54511 88.8867957,46.0958489 C90.8350259,43.6465877 90.4288602,40.0817166 87.9795991,38.1334864 L46.2404974,4.93270573 C43.7912362,2.98447547 40.2263651,3.39064123 38.2781349,5.83990235 L5.07735425,47.579004 C3.12912399,50.0282652 3.53528974,53.5931363 5.98455086,55.5413665 L47.7236526,88.7421472 C50.1729137,90.6903774 53.7377848,90.2842117 55.6860151,87.8349506 C57.6342453,85.3856894 57.2280796,81.8208183 54.7788184,79.8725881 L17.4744963,50.1993904 L27.0197207,38.1993986 L51.2805736,57.4973524 C53.7298347,59.4455826 57.2947058,59.0394169 59.2429361,56.5901558 C61.1911663,54.1408946 60.7850006,50.5760235 58.3357395,48.6277933 L34.0748866,29.3298395 Z" id="Combined-Shape"></path>
                    </g>
                    <g id="E/black" transform="translate(110.466102, 400.182979) rotate(180.000000) translate(-110.466102, -400.182979) translate(62.932203, 352.748936)">
                        <path d="M34.4523335,29.640156 L44.0858579,17.529156 L81.7787089,47.5114035 C84.2586241,49.4840171 87.8681119,49.0727679 89.8407255,46.5928527 C91.8133391,44.1129375 91.4020899,40.5034497 88.9221747,38.5308361 L46.73904,4.97685571 C44.2591248,3.00424209 40.6496371,3.41549127 38.6770235,5.89540647 L5.12304304,48.0785412 C3.15042942,50.5584564 3.5616786,54.1679441 6.0415938,56.1405578 L48.2247285,89.6945382 C50.7046437,91.6671518 54.3141315,91.2559026 56.2867451,88.7759874 C58.2593587,86.2960722 57.8481095,82.6865844 55.3681943,80.7139708 L17.6753433,50.7317233 L27.3088677,38.6207233 L51.8194891,58.117352 C54.2994043,60.0899656 57.9088921,59.6787164 59.8815057,57.1988012 C61.8541193,54.718886 61.4428701,51.1093982 58.9629549,49.1367846 L34.4523335,29.640156 Z" id="Combined-Shape"></path>
                    </g>
                    <g id="E/black" transform="translate(73.588703, 473.185859) rotate(180.000000) translate(-73.588703, -473.185859) translate(26.552813, 426.248778)">
                        <path d="M34.0748866,29.3298395 L43.620111,17.3298478 L80.9244332,47.0030455 C83.3736943,48.9512757 86.9385654,48.54511 88.8867957,46.0958489 C90.8350259,43.6465877 90.4288602,40.0817166 87.9795991,38.1334864 L46.2404974,4.93270573 C43.7912362,2.98447547 40.2263651,3.39064123 38.2781349,5.83990235 L5.07735425,47.579004 C3.12912399,50.0282652 3.53528974,53.5931363 5.98455086,55.5413665 L47.7236526,88.7421472 C50.1729137,90.6903774 53.7377848,90.2842117 55.6860151,87.8349506 C57.6342453,85.3856894 57.2280796,81.8208183 54.7788184,79.8725881 L17.4744963,50.1993904 L27.0197207,38.1993986 L51.2805736,57.4973524 C53.7298347,59.4455826 57.2947058,59.0394169 59.2429361,56.5901558 C61.1911663,54.1408946 60.7850006,50.5760235 58.3357395,48.6277933 L34.0748866,29.3298395 Z" id="Combined-Shape"></path>
                    </g>
                    <g id="E/black" transform="translate(0.669492, 337.382979)">
                        <path d="M47.6065183,5.48124764 L47.4772875,5.3580929 C47.2545446,5.10417662 47.0079894,4.86911705 46.73904,4.65518511 C44.8962983,3.18940216 42.363376,3.0265487 40.346563,4.19856109 C39.7084953,4.55477137 39.1429577,5.03339282 38.6770235,5.61915248 C38.5418291,5.78911506 38.417225,5.96531466 38.3034293,6.14713882 L38.2383653,6.23913293 L22.8840382,25.5421677 L22.7370735,25.6916358 C22.4314724,25.943265 22.1512072,26.2281219 21.9000332,26.5438908 C21.6488593,26.8596597 21.4343492,27.1968206 21.2579146,27.5511934 L21.1453372,27.7280144 L6.54726095,46.0803115 L6.41668447,46.1672864 C5.93058319,46.4910708 5.49501251,46.8906245 5.12304304,47.3582542 C4.24031556,48.4679947 3.81790599,49.8367805 3.90284505,51.2976231 C3.87765489,53.0440588 4.64885834,54.7110554 6.0415938,55.8188872 C6.55449109,56.2268641 7.12343593,56.5377548 7.72898594,56.7455815 L7.89200157,56.801529 L48.3243826,88.962897 C50.7736437,90.9111273 54.3385148,90.5049615 56.2867451,88.0557004 C58.2349754,85.6064393 57.8288096,82.0415682 55.3795485,80.0933379 L17.7698892,50.1772641 L27.3566639,38.1250365 L51.9191432,57.6629148 C54.3684043,59.611145 57.9332754,59.2049793 59.8815057,56.7557182 C61.829736,54.306457 61.4235702,50.7415859 58.9743091,48.7933557 L34.4118297,29.2554774 L44.0523775,17.1356478 L81.878363,47.2237953 C84.3276241,49.1720256 87.8924952,48.7658598 89.8407255,46.3165987 C91.7889558,43.8673376 91.38279,40.3024665 88.9335289,38.3542362 L47.6065183,5.48124764 Z" id="Combined-Shape"></path>
                    </g>
                    <g id="E/black" transform="translate(37.601432, 264.285807)">
                        <path d="M34.0748866,29.3298395 L43.620111,17.3298478 L80.9244332,47.0030455 C83.3736943,48.9512757 86.9385654,48.54511 88.8867957,46.0958489 C90.8350259,43.6465877 90.4288602,40.0817166 87.9795991,38.1334864 L46.2404974,4.93270573 C43.7912362,2.98447547 40.2263651,3.39064123 38.2781349,5.83990235 L5.07735425,47.579004 C3.12912399,50.0282652 3.53528974,53.5931363 5.98455086,55.5413665 L47.7236526,88.7421472 C50.1729137,90.6903774 53.7377848,90.2842117 55.6860151,87.8349506 C57.6342453,85.3856894 57.2280796,81.8208183 54.7788184,79.8725881 L17.4744963,50.1993904 L27.0197207,38.1993986 L51.2805736,57.4973524 C53.7298347,59.4455826 57.2947058,59.0394169 59.2429361,56.5901558 C61.1911663,54.1408946 60.7850006,50.5760235 58.3357395,48.6277933 L34.0748866,29.3298395 Z" id="Combined-Shape"></path>
                    </g>
                    <g id="E/black" transform="translate(109.868020, 135.760870) rotate(180.000000) translate(-109.868020, -135.760870) translate(62.832130, 88.823790)">
                        <path d="M34.0748866,29.3298395 L43.620111,17.3298478 L80.9244332,47.0030455 C83.3736943,48.9512757 86.9385654,48.54511 88.8867957,46.0958489 C90.8350259,43.6465877 90.4288602,40.0817166 87.9795991,38.1334864 L46.2404974,4.93270573 C43.7912362,2.98447547 40.2263651,3.39064123 38.2781349,5.83990235 L5.07735425,47.579004 C3.12912399,50.0282652 3.53528974,53.5931363 5.98455086,55.5413665 L47.7236526,88.7421472 C50.1729137,90.6903774 53.7377848,90.2842117 55.6860151,87.8349506 C57.6342453,85.3856894 57.2280796,81.8208183 54.7788184,79.8725881 L17.4744963,50.1993904 L27.0197207,38.1993986 L51.2805736,57.4973524 C53.7298347,59.4455826 57.2947058,59.0394169 59.2429361,56.5901558 C61.1911663,54.1408946 60.7850006,50.5760235 58.3357395,48.6277933 L34.0748866,29.3298395 Z" id="Combined-Shape"></path>
                    </g>
                    <g id="E/black" transform="translate(72.954566, 208.900052) rotate(180.000000) translate(-72.954566, -208.900052) translate(25.918676, 161.962971)">
                        <path d="M34.0748866,29.3298395 L43.620111,17.3298478 L80.9244332,47.0030455 C83.3736943,48.9512757 86.9385654,48.54511 88.8867957,46.0958489 C90.8350259,43.6465877 90.4288602,40.0817166 87.9795991,38.1334864 L46.2404974,4.93270573 C43.7912362,2.98447547 40.2263651,3.39064123 38.2781349,5.83990235 L5.07735425,47.579004 C3.12912399,50.0282652 3.53528974,53.5931363 5.98455086,55.5413665 L47.7236526,88.7421472 C50.1729137,90.6903774 53.7377848,90.2842117 55.6860151,87.8349506 C57.6342453,85.3856894 57.2280796,81.8208183 54.7788184,79.8725881 L17.4744963,50.1993904 L27.0197207,38.1993986 L51.2805736,57.4973524 C53.7298347,59.4455826 57.2947058,59.0394169 59.2429361,56.5901558 C61.1911663,54.1408946 60.7850006,50.5760235 58.3357395,48.6277933 L34.0748866,29.3298395 Z" id="Combined-Shape"></path>
                    </g>
                    <g id="E/black" transform="translate(0.053841, 73.139181)">
                        <path d="M34.0748866,29.3298395 L43.620111,17.3298478 L80.9244332,47.0030455 C83.3736943,48.9512757 86.9385654,48.54511 88.8867957,46.0958489 C90.8350259,43.6465877 90.4288602,40.0817166 87.9795991,38.1334864 L46.2404974,4.93270573 C43.7912362,2.98447547 40.2263651,3.39064123 38.2781349,5.83990235 L5.07735425,47.579004 C3.12912399,50.0282652 3.53528974,53.5931363 5.98455086,55.5413665 L47.7236526,88.7421472 C50.1729137,90.6903774 53.7377848,90.2842117 55.6860151,87.8349506 C57.6342453,85.3856894 57.2280796,81.8208183 54.7788184,79.8725881 L17.4744963,50.1993904 L27.0197207,38.1993986 L51.2805736,57.4973524 C53.7298347,59.4455826 57.2947058,59.0394169 59.2429361,56.5901558 C61.1911663,54.1408946 60.7850006,50.5760235 58.3357395,48.6277933 L34.0748866,29.3298395 Z" id="Combined-Shape"></path>
                    </g>
                    <g id="E/black" transform="translate(36.822034, 0.000000)">
                        <path d="M34.0748866,29.3298395 L43.620111,17.3298478 L80.9244332,47.0030455 C83.3736943,48.9512757 86.9385654,48.54511 88.8867957,46.0958489 C90.8350259,43.6465877 90.4288602,40.0817166 87.9795991,38.1334864 L46.2404974,4.93270573 C43.7912362,2.98447547 40.2263651,3.39064123 38.2781349,5.83990235 L5.07735425,47.579004 C3.12912399,50.0282652 3.53528974,53.5931363 5.98455086,55.5413665 L47.7236526,88.7421472 C50.1729137,90.6903774 53.7377848,90.2842117 55.6860151,87.8349506 C57.6342453,85.3856894 57.2280796,81.8208183 54.7788184,79.8725881 L17.4744963,50.1993904 L27.0197207,38.1993986 L51.2805736,57.4973524 C53.7298347,59.4455826 57.2947058,59.0394169 59.2429361,56.5901558 C61.1911663,54.1408946 60.7850006,50.5760235 58.3357395,48.6277933 L34.0748866,29.3298395 Z" id="Combined-Shape"></path>
                    </g>
                </g>
            </g>
            <g id="DNA" transform="translate(1580.000000, 0.000000)" stroke="#000000" stroke-width="2">
                <g id="DNA-2" transform="translate(392.500000, 79.000000) scale(1, -1) rotate(-90.000000) translate(-392.500000, -79.000000) translate(313.500000, -313.500000)">
                    <g id="E/black" transform="translate(111.136294, 664.332484) rotate(180.000000) translate(-111.136294, -664.332484) translate(64.100404, 617.395404)">
                        <path d="M34.0748866,29.3298395 L43.620111,17.3298478 L80.9244332,47.0030455 C83.3736943,48.9512757 86.9385654,48.54511 88.8867957,46.0958489 C90.8350259,43.6465877 90.4288602,40.0817166 87.9795991,38.1334864 L46.2404974,4.93270573 C43.7912362,2.98447547 40.2263651,3.39064123 38.2781349,5.83990235 L5.07735425,47.579004 C3.12912399,50.0282652 3.53528974,53.5931363 5.98455086,55.5413665 L47.7236526,88.7421472 C50.1729137,90.6903774 53.7377848,90.2842117 55.6860151,87.8349506 C57.6342453,85.3856894 57.2280796,81.8208183 54.7788184,79.8725881 L17.4744963,50.1993904 L27.0197207,38.1993986 L51.2805736,57.4973524 C53.7298347,59.4455826 57.2947058,59.0394169 59.2429361,56.5901558 C61.1911663,54.1408946 60.7850006,50.5760235 58.3357395,48.6277933 L34.0748866,29.3298395 Z" id="Combined-Shape"></path>
                    </g>
                    <g id="E/black" transform="translate(74.222840, 737.471665) rotate(180.000000) translate(-74.222840, -737.471665) translate(27.186950, 690.534585)">
                        <path d="M34.0748866,29.3298395 L43.620111,17.3298478 L80.9244332,47.0030455 C83.3736943,48.9512757 86.9385654,48.54511 88.8867957,46.0958489 C90.8350259,43.6465877 90.4288602,40.0817166 87.9795991,38.1334864 L46.2404974,4.93270573 C43.7912362,2.98447547 40.2263651,3.39064123 38.2781349,5.83990235 L5.07735425,47.579004 C3.12912399,50.0282652 3.53528974,53.5931363 5.98455086,55.5413665 L47.7236526,88.7421472 C50.1729137,90.6903774 53.7377848,90.2842117 55.6860151,87.8349506 C57.6342453,85.3856894 57.2280796,81.8208183 54.7788184,79.8725881 L17.4744963,50.1993904 L27.0197207,38.1993986 L51.2805736,57.4973524 C53.7298347,59.4455826 57.2947058,59.0394169 59.2429361,56.5901558 C61.1911663,54.1408946 60.7850006,50.5760235 58.3357395,48.6277933 L34.0748866,29.3298395 Z" id="Combined-Shape"></path>
                    </g>
                    <g id="E/black" transform="translate(1.322115, 601.710795)">
                        <path d="M34.0748866,29.3298395 L43.620111,17.3298478 L80.9244332,47.0030455 C83.3736943,48.9512757 86.9385654,48.54511 88.8867957,46.0958489 C90.8350259,43.6465877 90.4288602,40.0817166 87.9795991,38.1334864 L46.2404974,4.93270573 C43.7912362,2.98447547 40.2263651,3.39064123 38.2781349,5.83990235 L5.07735425,47.579004 C3.12912399,50.0282652 3.53528974,53.5931363 5.98455086,55.5413665 L47.7236526,88.7421472 C50.1729137,90.6903774 53.7377848,90.2842117 55.6860151,87.8349506 C57.6342453,85.3856894 57.2280796,81.8208183 54.7788184,79.8725881 L17.4744963,50.1993904 L27.0197207,38.1993986 L51.2805736,57.4973524 C53.7298347,59.4455826 57.2947058,59.0394169 59.2429361,56.5901558 C61.1911663,54.1408946 60.7850006,50.5760235 58.3357395,48.6277933 L34.0748866,29.3298395 Z" id="Combined-Shape"></path>
                    </g>
                    <g id="E/black" transform="translate(38.235569, 528.571614)">
                        <path d="M34.0748866,29.3298395 L43.620111,17.3298478 L80.9244332,47.0030455 C83.3736943,48.9512757 86.9385654,48.54511 88.8867957,46.0958489 C90.8350259,43.6465877 90.4288602,40.0817166 87.9795991,38.1334864 L46.2404974,4.93270573 C43.7912362,2.98447547 40.2263651,3.39064123 38.2781349,5.83990235 L5.07735425,47.579004 C3.12912399,50.0282652 3.53528974,53.5931363 5.98455086,55.5413665 L47.7236526,88.7421472 C50.1729137,90.6903774 53.7377848,90.2842117 55.6860151,87.8349506 C57.6342453,85.3856894 57.2280796,81.8208183 54.7788184,79.8725881 L17.4744963,50.1993904 L27.0197207,38.1993986 L51.2805736,57.4973524 C53.7298347,59.4455826 57.2947058,59.0394169 59.2429361,56.5901558 C61.1911663,54.1408946 60.7850006,50.5760235 58.3357395,48.6277933 L34.0748866,29.3298395 Z" id="Combined-Shape"></path>
                    </g>
                    <g id="E/black" transform="translate(110.466102, 400.182979) rotate(180.000000) translate(-110.466102, -400.182979) translate(62.932203, 352.748936)">
                        <path d="M34.4523335,29.640156 L44.0858579,17.529156 L81.7787089,47.5114035 C84.2586241,49.4840171 87.8681119,49.0727679 89.8407255,46.5928527 C91.8133391,44.1129375 91.4020899,40.5034497 88.9221747,38.5308361 L46.73904,4.97685571 C44.2591248,3.00424209 40.6496371,3.41549127 38.6770235,5.89540647 L5.12304304,48.0785412 C3.15042942,50.5584564 3.5616786,54.1679441 6.0415938,56.1405578 L48.2247285,89.6945382 C50.7046437,91.6671518 54.3141315,91.2559026 56.2867451,88.7759874 C58.2593587,86.2960722 57.8481095,82.6865844 55.3681943,80.7139708 L17.6753433,50.7317233 L27.3088677,38.6207233 L51.8194891,58.117352 C54.2994043,60.0899656 57.9088921,59.6787164 59.8815057,57.1988012 C61.8541193,54.718886 61.4428701,51.1093982 58.9629549,49.1367846 L34.4523335,29.640156 Z" id="Combined-Shape"></path>
                    </g>
                    <g id="E/black" transform="translate(73.588703, 473.185859) rotate(180.000000) translate(-73.588703, -473.185859) translate(26.552813, 426.248778)">
                        <path d="M34.0748866,29.3298395 L43.620111,17.3298478 L80.9244332,47.0030455 C83.3736943,48.9512757 86.9385654,48.54511 88.8867957,46.0958489 C90.8350259,43.6465877 90.4288602,40.0817166 87.9795991,38.1334864 L46.2404974,4.93270573 C43.7912362,2.98447547 40.2263651,3.39064123 38.2781349,5.83990235 L5.07735425,47.579004 C3.12912399,50.0282652 3.53528974,53.5931363 5.98455086,55.5413665 L47.7236526,88.7421472 C50.1729137,90.6903774 53.7377848,90.2842117 55.6860151,87.8349506 C57.6342453,85.3856894 57.2280796,81.8208183 54.7788184,79.8725881 L17.4744963,50.1993904 L27.0197207,38.1993986 L51.2805736,57.4973524 C53.7298347,59.4455826 57.2947058,59.0394169 59.2429361,56.5901558 C61.1911663,54.1408946 60.7850006,50.5760235 58.3357395,48.6277933 L34.0748866,29.3298395 Z" id="Combined-Shape"></path>
                    </g>
                    <g id="E/black" transform="translate(0.669492, 337.382979)">
                        <path d="M47.6065183,5.48124764 L47.4772875,5.3580929 C47.2545446,5.10417662 47.0079894,4.86911705 46.73904,4.65518511 C44.8962983,3.18940216 42.363376,3.0265487 40.346563,4.19856109 C39.7084953,4.55477137 39.1429577,5.03339282 38.6770235,5.61915248 C38.5418291,5.78911506 38.417225,5.96531466 38.3034293,6.14713882 L38.2383653,6.23913293 L22.8840382,25.5421677 L22.7370735,25.6916358 C22.4314724,25.943265 22.1512072,26.2281219 21.9000332,26.5438908 C21.6488593,26.8596597 21.4343492,27.1968206 21.2579146,27.5511934 L21.1453372,27.7280144 L6.54726095,46.0803115 L6.41668447,46.1672864 C5.93058319,46.4910708 5.49501251,46.8906245 5.12304304,47.3582542 C4.24031556,48.4679947 3.81790599,49.8367805 3.90284505,51.2976231 C3.87765489,53.0440588 4.64885834,54.7110554 6.0415938,55.8188872 C6.55449109,56.2268641 7.12343593,56.5377548 7.72898594,56.7455815 L7.89200157,56.801529 L48.3243826,88.962897 C50.7736437,90.9111273 54.3385148,90.5049615 56.2867451,88.0557004 C58.2349754,85.6064393 57.8288096,82.0415682 55.3795485,80.0933379 L17.7698892,50.1772641 L27.3566639,38.1250365 L51.9191432,57.6629148 C54.3684043,59.611145 57.9332754,59.2049793 59.8815057,56.7557182 C61.829736,54.306457 61.4235702,50.7415859 58.9743091,48.7933557 L34.4118297,29.2554774 L44.0523775,17.1356478 L81.878363,47.2237953 C84.3276241,49.1720256 87.8924952,48.7658598 89.8407255,46.3165987 C91.7889558,43.8673376 91.38279,40.3024665 88.9335289,38.3542362 L47.6065183,5.48124764 Z" id="Combined-Shape"></path>
                    </g>
                    <g id="E/black" transform="translate(37.601432, 264.285807)">
                        <path d="M34.0748866,29.3298395 L43.620111,17.3298478 L80.9244332,47.0030455 C83.3736943,48.9512757 86.9385654,48.54511 88.8867957,46.0958489 C90.8350259,43.6465877 90.4288602,40.0817166 87.9795991,38.1334864 L46.2404974,4.93270573 C43.7912362,2.98447547 40.2263651,3.39064123 38.2781349,5.83990235 L5.07735425,47.579004 C3.12912399,50.0282652 3.53528974,53.5931363 5.98455086,55.5413665 L47.7236526,88.7421472 C50.1729137,90.6903774 53.7377848,90.2842117 55.6860151,87.8349506 C57.6342453,85.3856894 57.2280796,81.8208183 54.7788184,79.8725881 L17.4744963,50.1993904 L27.0197207,38.1993986 L51.2805736,57.4973524 C53.7298347,59.4455826 57.2947058,59.0394169 59.2429361,56.5901558 C61.1911663,54.1408946 60.7850006,50.5760235 58.3357395,48.6277933 L34.0748866,29.3298395 Z" id="Combined-Shape"></path>
                    </g>
                    <g id="E/black" transform="translate(109.868020, 135.760870) rotate(180.000000) translate(-109.868020, -135.760870) translate(62.832130, 88.823790)">
                        <path d="M34.0748866,29.3298395 L43.620111,17.3298478 L80.9244332,47.0030455 C83.3736943,48.9512757 86.9385654,48.54511 88.8867957,46.0958489 C90.8350259,43.6465877 90.4288602,40.0817166 87.9795991,38.1334864 L46.2404974,4.93270573 C43.7912362,2.98447547 40.2263651,3.39064123 38.2781349,5.83990235 L5.07735425,47.579004 C3.12912399,50.0282652 3.53528974,53.5931363 5.98455086,55.5413665 L47.7236526,88.7421472 C50.1729137,90.6903774 53.7377848,90.2842117 55.6860151,87.8349506 C57.6342453,85.3856894 57.2280796,81.8208183 54.7788184,79.8725881 L17.4744963,50.1993904 L27.0197207,38.1993986 L51.2805736,57.4973524 C53.7298347,59.4455826 57.2947058,59.0394169 59.2429361,56.5901558 C61.1911663,54.1408946 60.7850006,50.5760235 58.3357395,48.6277933 L34.0748866,29.3298395 Z" id="Combined-Shape"></path>
                    </g>
                    <g id="E/black" transform="translate(72.954566, 208.900052) rotate(180.000000) translate(-72.954566, -208.900052) translate(25.918676, 161.962971)">
                        <path d="M34.0748866,29.3298395 L43.620111,17.3298478 L80.9244332,47.0030455 C83.3736943,48.9512757 86.9385654,48.54511 88.8867957,46.0958489 C90.8350259,43.6465877 90.4288602,40.0817166 87.9795991,38.1334864 L46.2404974,4.93270573 C43.7912362,2.98447547 40.2263651,3.39064123 38.2781349,5.83990235 L5.07735425,47.579004 C3.12912399,50.0282652 3.53528974,53.5931363 5.98455086,55.5413665 L47.7236526,88.7421472 C50.1729137,90.6903774 53.7377848,90.2842117 55.6860151,87.8349506 C57.6342453,85.3856894 57.2280796,81.8208183 54.7788184,79.8725881 L17.4744963,50.1993904 L27.0197207,38.1993986 L51.2805736,57.4973524 C53.7298347,59.4455826 57.2947058,59.0394169 59.2429361,56.5901558 C61.1911663,54.1408946 60.7850006,50.5760235 58.3357395,48.6277933 L34.0748866,29.3298395 Z" id="Combined-Shape"></path>
                    </g>
                    <g id="E/black" transform="translate(0.053841, 73.139181)">
                        <path d="M34.0748866,29.3298395 L43.620111,17.3298478 L80.9244332,47.0030455 C83.3736943,48.9512757 86.9385654,48.54511 88.8867957,46.0958489 C90.8350259,43.6465877 90.4288602,40.0817166 87.9795991,38.1334864 L46.2404974,4.93270573 C43.7912362,2.98447547 40.2263651,3.39064123 38.2781349,5.83990235 L5.07735425,47.579004 C3.12912399,50.0282652 3.53528974,53.5931363 5.98455086,55.5413665 L47.7236526,88.7421472 C50.1729137,90.6903774 53.7377848,90.2842117 55.6860151,87.8349506 C57.6342453,85.3856894 57.2280796,81.8208183 54.7788184,79.8725881 L17.4744963,50.1993904 L27.0197207,38.1993986 L51.2805736,57.4973524 C53.7298347,59.4455826 57.2947058,59.0394169 59.2429361,56.5901558 C61.1911663,54.1408946 60.7850006,50.5760235 58.3357395,48.6277933 L34.0748866,29.3298395 Z" id="Combined-Shape"></path>
                    </g>
                    <g id="E/black" transform="translate(36.822034, 0.000000)">
                        <path d="M34.0748866,29.3298395 L43.620111,17.3298478 L80.9244332,47.0030455 C83.3736943,48.9512757 86.9385654,48.54511 88.8867957,46.0958489 C90.8350259,43.6465877 90.4288602,40.0817166 87.9795991,38.1334864 L46.2404974,4.93270573 C43.7912362,2.98447547 40.2263651,3.39064123 38.2781349,5.83990235 L5.07735425,47.579004 C3.12912399,50.0282652 3.53528974,53.5931363 5.98455086,55.5413665 L47.7236526,88.7421472 C50.1729137,90.6903774 53.7377848,90.2842117 55.6860151,87.8349506 C57.6342453,85.3856894 57.2280796,81.8208183 54.7788184,79.8725881 L17.4744963,50.1993904 L27.0197207,38.1993986 L51.2805736,57.4973524 C53.7298347,59.4455826 57.2947058,59.0394169 59.2429361,56.5901558 C61.1911663,54.1408946 60.7850006,50.5760235 58.3357395,48.6277933 L34.0748866,29.3298395 Z" id="Combined-Shape"></path>
                    </g>
                </g>
                <g id="DNA-2" transform="translate(1187.500000, 79.000000) scale(1, -1) rotate(-90.000000) translate(-1187.500000, -79.000000) translate(1108.500000, -313.500000)">
                    <g id="E/black" transform="translate(111.136294, 664.332484) rotate(180.000000) translate(-111.136294, -664.332484) translate(64.100404, 617.395404)">
                        <path d="M34.0748866,29.3298395 L43.620111,17.3298478 L80.9244332,47.0030455 C83.3736943,48.9512757 86.9385654,48.54511 88.8867957,46.0958489 C90.8350259,43.6465877 90.4288602,40.0817166 87.9795991,38.1334864 L46.2404974,4.93270573 C43.7912362,2.98447547 40.2263651,3.39064123 38.2781349,5.83990235 L5.07735425,47.579004 C3.12912399,50.0282652 3.53528974,53.5931363 5.98455086,55.5413665 L47.7236526,88.7421472 C50.1729137,90.6903774 53.7377848,90.2842117 55.6860151,87.8349506 C57.6342453,85.3856894 57.2280796,81.8208183 54.7788184,79.8725881 L17.4744963,50.1993904 L27.0197207,38.1993986 L51.2805736,57.4973524 C53.7298347,59.4455826 57.2947058,59.0394169 59.2429361,56.5901558 C61.1911663,54.1408946 60.7850006,50.5760235 58.3357395,48.6277933 L34.0748866,29.3298395 Z" id="Combined-Shape"></path>
                    </g>
                    <g id="E/black" transform="translate(74.222840, 737.471665) rotate(180.000000) translate(-74.222840, -737.471665) translate(27.186950, 690.534585)">
                        <path d="M34.0748866,29.3298395 L43.620111,17.3298478 L80.9244332,47.0030455 C83.3736943,48.9512757 86.9385654,48.54511 88.8867957,46.0958489 C90.8350259,43.6465877 90.4288602,40.0817166 87.9795991,38.1334864 L46.2404974,4.93270573 C43.7912362,2.98447547 40.2263651,3.39064123 38.2781349,5.83990235 L5.07735425,47.579004 C3.12912399,50.0282652 3.53528974,53.5931363 5.98455086,55.5413665 L47.7236526,88.7421472 C50.1729137,90.6903774 53.7377848,90.2842117 55.6860151,87.8349506 C57.6342453,85.3856894 57.2280796,81.8208183 54.7788184,79.8725881 L17.4744963,50.1993904 L27.0197207,38.1993986 L51.2805736,57.4973524 C53.7298347,59.4455826 57.2947058,59.0394169 59.2429361,56.5901558 C61.1911663,54.1408946 60.7850006,50.5760235 58.3357395,48.6277933 L34.0748866,29.3298395 Z" id="Combined-Shape"></path>
                    </g>
                    <g id="E/black" transform="translate(1.322115, 601.710795)">
                        <path d="M34.0748866,29.3298395 L43.620111,17.3298478 L80.9244332,47.0030455 C83.3736943,48.9512757 86.9385654,48.54511 88.8867957,46.0958489 C90.8350259,43.6465877 90.4288602,40.0817166 87.9795991,38.1334864 L46.2404974,4.93270573 C43.7912362,2.98447547 40.2263651,3.39064123 38.2781349,5.83990235 L5.07735425,47.579004 C3.12912399,50.0282652 3.53528974,53.5931363 5.98455086,55.5413665 L47.7236526,88.7421472 C50.1729137,90.6903774 53.7377848,90.2842117 55.6860151,87.8349506 C57.6342453,85.3856894 57.2280796,81.8208183 54.7788184,79.8725881 L17.4744963,50.1993904 L27.0197207,38.1993986 L51.2805736,57.4973524 C53.7298347,59.4455826 57.2947058,59.0394169 59.2429361,56.5901558 C61.1911663,54.1408946 60.7850006,50.5760235 58.3357395,48.6277933 L34.0748866,29.3298395 Z" id="Combined-Shape"></path>
                    </g>
                    <g id="E/black" transform="translate(38.235569, 528.571614)">
                        <path d="M34.0748866,29.3298395 L43.620111,17.3298478 L80.9244332,47.0030455 C83.3736943,48.9512757 86.9385654,48.54511 88.8867957,46.0958489 C90.8350259,43.6465877 90.4288602,40.0817166 87.9795991,38.1334864 L46.2404974,4.93270573 C43.7912362,2.98447547 40.2263651,3.39064123 38.2781349,5.83990235 L5.07735425,47.579004 C3.12912399,50.0282652 3.53528974,53.5931363 5.98455086,55.5413665 L47.7236526,88.7421472 C50.1729137,90.6903774 53.7377848,90.2842117 55.6860151,87.8349506 C57.6342453,85.3856894 57.2280796,81.8208183 54.7788184,79.8725881 L17.4744963,50.1993904 L27.0197207,38.1993986 L51.2805736,57.4973524 C53.7298347,59.4455826 57.2947058,59.0394169 59.2429361,56.5901558 C61.1911663,54.1408946 60.7850006,50.5760235 58.3357395,48.6277933 L34.0748866,29.3298395 Z" id="Combined-Shape"></path>
                    </g>
                    <g id="E/black" transform="translate(110.466102, 400.182979) rotate(180.000000) translate(-110.466102, -400.182979) translate(62.932203, 352.748936)">
                        <path d="M34.4523335,29.640156 L44.0858579,17.529156 L81.7787089,47.5114035 C84.2586241,49.4840171 87.8681119,49.0727679 89.8407255,46.5928527 C91.8133391,44.1129375 91.4020899,40.5034497 88.9221747,38.5308361 L46.73904,4.97685571 C44.2591248,3.00424209 40.6496371,3.41549127 38.6770235,5.89540647 L5.12304304,48.0785412 C3.15042942,50.5584564 3.5616786,54.1679441 6.0415938,56.1405578 L48.2247285,89.6945382 C50.7046437,91.6671518 54.3141315,91.2559026 56.2867451,88.7759874 C58.2593587,86.2960722 57.8481095,82.6865844 55.3681943,80.7139708 L17.6753433,50.7317233 L27.3088677,38.6207233 L51.8194891,58.117352 C54.2994043,60.0899656 57.9088921,59.6787164 59.8815057,57.1988012 C61.8541193,54.718886 61.4428701,51.1093982 58.9629549,49.1367846 L34.4523335,29.640156 Z" id="Combined-Shape"></path>
                    </g>
                    <g id="E/black" transform="translate(73.588703, 473.185859) rotate(180.000000) translate(-73.588703, -473.185859) translate(26.552813, 426.248778)">
                        <path d="M34.0748866,29.3298395 L43.620111,17.3298478 L80.9244332,47.0030455 C83.3736943,48.9512757 86.9385654,48.54511 88.8867957,46.0958489 C90.8350259,43.6465877 90.4288602,40.0817166 87.9795991,38.1334864 L46.2404974,4.93270573 C43.7912362,2.98447547 40.2263651,3.39064123 38.2781349,5.83990235 L5.07735425,47.579004 C3.12912399,50.0282652 3.53528974,53.5931363 5.98455086,55.5413665 L47.7236526,88.7421472 C50.1729137,90.6903774 53.7377848,90.2842117 55.6860151,87.8349506 C57.6342453,85.3856894 57.2280796,81.8208183 54.7788184,79.8725881 L17.4744963,50.1993904 L27.0197207,38.1993986 L51.2805736,57.4973524 C53.7298347,59.4455826 57.2947058,59.0394169 59.2429361,56.5901558 C61.1911663,54.1408946 60.7850006,50.5760235 58.3357395,48.6277933 L34.0748866,29.3298395 Z" id="Combined-Shape"></path>
                    </g>
                    <g id="E/black" transform="translate(0.669492, 337.382979)">
                        <path d="M47.6065183,5.48124764 L47.4772875,5.3580929 C47.2545446,5.10417662 47.0079894,4.86911705 46.73904,4.65518511 C44.8962983,3.18940216 42.363376,3.0265487 40.346563,4.19856109 C39.7084953,4.55477137 39.1429577,5.03339282 38.6770235,5.61915248 C38.5418291,5.78911506 38.417225,5.96531466 38.3034293,6.14713882 L38.2383653,6.23913293 L22.8840382,25.5421677 L22.7370735,25.6916358 C22.4314724,25.943265 22.1512072,26.2281219 21.9000332,26.5438908 C21.6488593,26.8596597 21.4343492,27.1968206 21.2579146,27.5511934 L21.1453372,27.7280144 L6.54726095,46.0803115 L6.41668447,46.1672864 C5.93058319,46.4910708 5.49501251,46.8906245 5.12304304,47.3582542 C4.24031556,48.4679947 3.81790599,49.8367805 3.90284505,51.2976231 C3.87765489,53.0440588 4.64885834,54.7110554 6.0415938,55.8188872 C6.55449109,56.2268641 7.12343593,56.5377548 7.72898594,56.7455815 L7.89200157,56.801529 L48.3243826,88.962897 C50.7736437,90.9111273 54.3385148,90.5049615 56.2867451,88.0557004 C58.2349754,85.6064393 57.8288096,82.0415682 55.3795485,80.0933379 L17.7698892,50.1772641 L27.3566639,38.1250365 L51.9191432,57.6629148 C54.3684043,59.611145 57.9332754,59.2049793 59.8815057,56.7557182 C61.829736,54.306457 61.4235702,50.7415859 58.9743091,48.7933557 L34.4118297,29.2554774 L44.0523775,17.1356478 L81.878363,47.2237953 C84.3276241,49.1720256 87.8924952,48.7658598 89.8407255,46.3165987 C91.7889558,43.8673376 91.38279,40.3024665 88.9335289,38.3542362 L47.6065183,5.48124764 Z" id="Combined-Shape"></path>
                    </g>
                    <g id="E/black" transform="translate(37.601432, 264.285807)">
                        <path d="M34.0748866,29.3298395 L43.620111,17.3298478 L80.9244332,47.0030455 C83.3736943,48.9512757 86.9385654,48.54511 88.8867957,46.0958489 C90.8350259,43.6465877 90.4288602,40.0817166 87.9795991,38.1334864 L46.2404974,4.93270573 C43.7912362,2.98447547 40.2263651,3.39064123 38.2781349,5.83990235 L5.07735425,47.579004 C3.12912399,50.0282652 3.53528974,53.5931363 5.98455086,55.5413665 L47.7236526,88.7421472 C50.1729137,90.6903774 53.7377848,90.2842117 55.6860151,87.8349506 C57.6342453,85.3856894 57.2280796,81.8208183 54.7788184,79.8725881 L17.4744963,50.1993904 L27.0197207,38.1993986 L51.2805736,57.4973524 C53.7298347,59.4455826 57.2947058,59.0394169 59.2429361,56.5901558 C61.1911663,54.1408946 60.7850006,50.5760235 58.3357395,48.6277933 L34.0748866,29.3298395 Z" id="Combined-Shape"></path>
                    </g>
                    <g id="E/black" transform="translate(109.868020, 135.760870) rotate(180.000000) translate(-109.868020, -135.760870) translate(62.832130, 88.823790)">
                        <path d="M34.0748866,29.3298395 L43.620111,17.3298478 L80.9244332,47.0030455 C83.3736943,48.9512757 86.9385654,48.54511 88.8867957,46.0958489 C90.8350259,43.6465877 90.4288602,40.0817166 87.9795991,38.1334864 L46.2404974,4.93270573 C43.7912362,2.98447547 40.2263651,3.39064123 38.2781349,5.83990235 L5.07735425,47.579004 C3.12912399,50.0282652 3.53528974,53.5931363 5.98455086,55.5413665 L47.7236526,88.7421472 C50.1729137,90.6903774 53.7377848,90.2842117 55.6860151,87.8349506 C57.6342453,85.3856894 57.2280796,81.8208183 54.7788184,79.8725881 L17.4744963,50.1993904 L27.0197207,38.1993986 L51.2805736,57.4973524 C53.7298347,59.4455826 57.2947058,59.0394169 59.2429361,56.5901558 C61.1911663,54.1408946 60.7850006,50.5760235 58.3357395,48.6277933 L34.0748866,29.3298395 Z" id="Combined-Shape"></path>
                    </g>
                    <g id="E/black" transform="translate(72.954566, 208.900052) rotate(180.000000) translate(-72.954566, -208.900052) translate(25.918676, 161.962971)">
                        <path d="M34.0748866,29.3298395 L43.620111,17.3298478 L80.9244332,47.0030455 C83.3736943,48.9512757 86.9385654,48.54511 88.8867957,46.0958489 C90.8350259,43.6465877 90.4288602,40.0817166 87.9795991,38.1334864 L46.2404974,4.93270573 C43.7912362,2.98447547 40.2263651,3.39064123 38.2781349,5.83990235 L5.07735425,47.579004 C3.12912399,50.0282652 3.53528974,53.5931363 5.98455086,55.5413665 L47.7236526,88.7421472 C50.1729137,90.6903774 53.7377848,90.2842117 55.6860151,87.8349506 C57.6342453,85.3856894 57.2280796,81.8208183 54.7788184,79.8725881 L17.4744963,50.1993904 L27.0197207,38.1993986 L51.2805736,57.4973524 C53.7298347,59.4455826 57.2947058,59.0394169 59.2429361,56.5901558 C61.1911663,54.1408946 60.7850006,50.5760235 58.3357395,48.6277933 L34.0748866,29.3298395 Z" id="Combined-Shape"></path>
                    </g>
                    <g id="E/black" transform="translate(0.053841, 73.139181)">
                        <path d="M34.0748866,29.3298395 L43.620111,17.3298478 L80.9244332,47.0030455 C83.3736943,48.9512757 86.9385654,48.54511 88.8867957,46.0958489 C90.8350259,43.6465877 90.4288602,40.0817166 87.9795991,38.1334864 L46.2404974,4.93270573 C43.7912362,2.98447547 40.2263651,3.39064123 38.2781349,5.83990235 L5.07735425,47.579004 C3.12912399,50.0282652 3.53528974,53.5931363 5.98455086,55.5413665 L47.7236526,88.7421472 C50.1729137,90.6903774 53.7377848,90.2842117 55.6860151,87.8349506 C57.6342453,85.3856894 57.2280796,81.8208183 54.7788184,79.8725881 L17.4744963,50.1993904 L27.0197207,38.1993986 L51.2805736,57.4973524 C53.7298347,59.4455826 57.2947058,59.0394169 59.2429361,56.5901558 C61.1911663,54.1408946 60.7850006,50.5760235 58.3357395,48.6277933 L34.0748866,29.3298395 Z" id="Combined-Shape"></path>
                    </g>
                    <g id="E/black" transform="translate(36.822034, 0.000000)">
                        <path d="M34.0748866,29.3298395 L43.620111,17.3298478 L80.9244332,47.0030455 C83.3736943,48.9512757 86.9385654,48.54511 88.8867957,46.0958489 C90.8350259,43.6465877 90.4288602,40.0817166 87.9795991,38.1334864 L46.2404974,4.93270573 C43.7912362,2.98447547 40.2263651,3.39064123 38.2781349,5.83990235 L5.07735425,47.579004 C3.12912399,50.0282652 3.53528974,53.5931363 5.98455086,55.5413665 L47.7236526,88.7421472 C50.1729137,90.6903774 53.7377848,90.2842117 55.6860151,87.8349506 C57.6342453,85.3856894 57.2280796,81.8208183 54.7788184,79.8725881 L17.4744963,50.1993904 L27.0197207,38.1993986 L51.2805736,57.4973524 C53.7298347,59.4455826 57.2947058,59.0394169 59.2429361,56.5901558 C61.1911663,54.1408946 60.7850006,50.5760235 58.3357395,48.6277933 L34.0748866,29.3298395 Z" id="Combined-Shape"></path>
                    </g>
                </g>
            </g>
        </g>
    </g>
</svg>